/* XPM */
static char *_3557f409d8d4b15b563482d133c2814Vm2idpqm2684ib1H[] = {
/* columns rows colors chars-per-pixel */
"50 50 223 2 ",
"   c #351A02",
".  c #38220D",
"X  c #342313",
"o  c #3E342B",
"O  c #4B2808",
"+  c #532E0C",
"@  c #5B340E",
"#  c #52300D",
"$  c #472E17",
"%  c #4D341C",
"&  c #4B3217",
"*  c #533315",
"=  c #5D3813",
"-  c #54361A",
";  c #5C3A1A",
":  c #5A3716",
">  c #64380E",
",  c #653C14",
"<  c #6B3E14",
"1  c #643F1A",
"2  c #4C3924",
"3  c #453628",
"4  c #473627",
"5  c #543C25",
"6  c #5B3D22",
"7  c #553B28",
"8  c #443A31",
"9  c #603D20",
"0  c #72410D",
"q  c #6D431C",
"w  c #68431F",
"e  c #7B4814",
"r  c #71451C",
"t  c #764A1D",
"y  c #784B1D",
"u  c #764613",
"i  c #5C4025",
"p  c #5C442C",
"a  c #5D4A39",
"s  c #574637",
"d  c #4E4033",
"f  c #624224",
"g  c #694522",
"h  c #624529",
"j  c #65482B",
"k  c #6A492A",
"l  c #754B22",
"z  c #734E2C",
"x  c #784D23",
"c  c #7D5127",
"v  c #75512C",
"b  c #7C542D",
"n  c #694D33",
"m  c #6D523B",
"M  c #6F5034",
"N  c #735435",
"B  c #7B5634",
"V  c #7D5C3C",
"C  c #74553C",
"Z  c #575149",
"A  c #624F40",
"S  c #6C5C4C",
"D  c #685448",
"F  c #755B41",
"G  c #7B5C40",
"H  c #745D4C",
"J  c #755A45",
"K  c #655C54",
"L  c #735E50",
"P  c #7B624B",
"I  c #70614E",
"U  c #696259",
"Y  c #7B6B5D",
"T  c #776557",
"R  c #6A6661",
"E  c #6E6D6D",
"W  c #666664",
"Q  c #736B63",
"!  c #796F66",
"~  c #7C7166",
"^  c #76726E",
"/  c #7B756C",
"(  c #717070",
")  c #7A7572",
"_  c #7E7973",
"`  c #7E7D7A",
"'  c #84511D",
"]  c #8A531D",
"[  c #835424",
"{  c #885626",
"}  c #84592E",
"|  c #87592C",
" . c #965E26",
".. c #835B36",
"X. c #825E3B",
"o. c #8E602F",
"O. c #95622D",
"+. c #98622C",
"@. c #8C6135",
"#. c #8B623C",
"$. c #87603F",
"%. c #946433",
"&. c #9C6935",
"*. c #92663B",
"=. c #9D6C3C",
"-. c #976739",
";. c #A16A31",
":. c #A16E3A",
">. c #A8743F",
",. c #A6733D",
"<. c #A1692E",
"1. c #805F40",
"2. c #866445",
"3. c #8C6542",
"4. c #8D6944",
"5. c #83654A",
"6. c #8D6C4C",
"7. c #86684C",
"8. c #946C44",
"9. c #9B6E43",
"0. c #946E4A",
"q. c #9C7145",
"w. c #97724D",
"e. c #9A724B",
"r. c #836B54",
"t. c #856C57",
"y. c #86715D",
"u. c #8B745D",
"i. c #8B7055",
"p. c #967351",
"a. c #9B7652",
"s. c #9A7A5A",
"d. c #A37344",
"f. c #A97542",
"g. c #AB7845",
"h. c #A2764B",
"j. c #A67A4E",
"k. c #AD7C4A",
"l. c #A27A51",
"z. c #8C7964",
"x. c #837569",
"c. c #87796B",
"v. c #887767",
"b. c #917A65",
"n. c #837B74",
"m. c #897F75",
"M. c #817F7C",
"N. c #AB845D",
"B. c #9E846A",
"V. c #8A8076",
"C. c #85817D",
"Z. c #8B847D",
"A. c #8F887E",
"S. c #938576",
"D. c #918579",
"F. c #95897D",
"G. c #9B8C7C",
"H. c #988777",
"J. c #A4886B",
"K. c #AE8F70",
"L. c #B69677",
"P. c #A5907B",
"I. c #848483",
"U. c #898581",
"Y. c #8E8A85",
"T. c #8B8B89",
"R. c #938C85",
"E. c #998E84",
"W. c #948E8A",
"Q. c #948B84",
"!. c #9B9185",
"~. c #96918B",
"^. c #9C938A",
"/. c #9A9692",
"(. c #9E9992",
"). c #A29385",
"_. c #A1968C",
"`. c #A49A8E",
"'. c #AA9C8C",
"]. c #A89785",
"[. c #B09F8C",
"{. c #A59C92",
"}. c #A99E94",
"|. c #ABA195",
" X c #A7A29C",
".X c #ACA39A",
"XX c #A7A096",
"oX c #B2A495",
"OX c #B2A69A",
"+X c #B5A99C",
"@X c #BAAB9C",
"#X c #BBA691",
"$X c #ABA9A6",
"%X c #BAADA2",
"&X c #B1ADA9",
"*X c #B6ACA1",
"=X c #B8B2AA",
"-X c #BEBDBB",
";X c #B9B6B2",
":X c #C0AE9A",
">X c #C1BEBB",
",X c #C3BDB5",
"<X c #C6C2BD",
"1X c #C9C5BD",
"2X c #CBC6C1",
"3X c #CDCAC5",
"4X c #CBCBCB",
"5X c #C6C5C1",
"6X c #D1CDCA",
"7X c #D2CDC7",
"8X c #D2D1CD",
"9X c #DBD6CE",
"0X c #D3D2D1",
"qX c #DAD6D1",
"wX c #DBD9D6",
"eX c #E2DEDB",
"rX c #E5E2DE",
"tX c #EAE8E4",
"yX c #F0F0EE",
"uX c #F9F6F3",
"iX c #FFFFFF",
"pX c #F9F8F5",
"aX c #F2EEEB",
/* pixels */
"iXiXiXiXiXiXiXiXiXiXiXiXiXiXiXiXpXiXiXiXpXuXqX9X9X9X0X8XyXiXiXiXpXiXiXiXiXiXiXiXiXiXiXiXiXiXiXiXiXiX",
"iXiXiXiXiXiXiXiXiXiXiXiXiXiXiXiXiXpX6X/.` C. X_.E.Y.I.` _ &XwXpXiXiXiXiXiXiXiXiXiXiXiXiXiXiXiXiXiXiX",
"iXiXiXiXiXiXiXiXiXiXiXiXiXiXiXaX>X~.C.U.C./ @X|.{.^.Y.W.K n.}.(.-XyXiXiXiXiXiXiXiXiXiXiXiXiXiXiXiXiX",
"iXiXiXiXiXiXiXiXiXiXiXiXiXiXeX^.^._.^.W.Y.) oX|._.^.Y.Y.Q +X+X^.I.` ;XiXiXiXiXiXiXiXiXiXiXiXiXiXiXiX",
"iXiXiXiXiXiXiXiXiXiXiXiXiXiX/.XX@X`.^.E.Y._ `.oX_.^.W.m.m.@X`.^.~.T.U &XpXiXiXiXiXiXiXiXiXiXiXiXiXiX",
"iXiXiXiXiXiXiXiXiXiXiXiXiX X! A.@X}._.^.W.n.E.OX_.W.W.n.F.+X`.^.Y.C.Z E (.uXiXiXiXiXiXiXiXiXiXiXiXiX",
"iXiXiXiXiXiXiXiXiXiXiXiX*XC.~._ Z.OX{.^.W.m.Q.OX_.^.^.n.`.}.^.E.T.E _ ~.Z. XiXiXiXiXiXiXiXiXiXiXiXiX",
"iXiXiXiXiXiXiXiXiXpXiX2X^.`.E.R.c.F. X).^.Q.c.].E.H.m.~ #X|.^.E.) _ T.R.{.^.-XpXiXiXiXiXiXiXiXiXiXiX",
"iXiXiXiXiXiXiXiXiXiXtX_ +XOX^.E.R./ !.|.H.S i p p 2 i p a c.^.V.^ R.E.^.oX%XC.tXiXiXiXiXiXiXiXiXiXiX",
"iXiXiXiXiXiXiXiXiXpX~.R ~ |.+X`.!.~.T S p % & p f * 1 k . 2 a S !.!.(..XXXV.^ ~.iXiXiXiXiXiXiXiXiXiX",
"iXiXiXiXiXiXiXiXiX8XI.~.C./ D.{.oX~ X % j ; * j 9 + , q O i j & I .X.XE./ C.!.C.<XiXiXiXiXiXiXiXiXiX",
"iXiXiXiXiXiXiXiXiX X^.^.~.Y.m.n.V.p . p g = # k z q @.q.g 2.l.t p c.V.n.Q.E.!.(./.uXiXiXiXiXiXiXiXiX",
"iXiXiXiXiXiXiXiXtX X+X{._.!.!.D.5 i . i g @ q 8.q.[ ;.g.q $.k.t v F c.~.!.^.XX+XXXqXiXiXiXiXiXiXiXiX",
"iXiXiXiXiXiXiXiXrX/ _..X.X|..XY - 6 . - l c | d.=.' ;.>.q @.k.e l p.u.`.{.{.`.^./ qXiXiXiXiXiXiXiXiX",
"iXiXiXiXiXiXiXiX;X^ n.n.V.Q.!.a i - . f d.O.[ d.=.' <.g.q B k.e y w.7.z.V.n.n.V._ $XiXiXiXiXiXiXiXiX",
"iXiXiXiXiXiXiXiX.XY.~.R.A.Z./ 2 i # . $.g. .{ d.=.' <.>.+ @.k.e y e.p.u.F.E.E.^.R.}.iXiXiXiXiXiXiXiX",
"iXiXiXiXiXiXiXuX}.}.}.}.`.}.m.4 f w # 3.f. .{ d.9.' <.f., #.k.' y e.w.B.[.`.'.|.OX}.uXiXiXiXiXiXiXiX",
"iXiXiXiXiXiXiXiX*XH.).).).}.! $ f V 6 #.f. .| q.:.' <.>.< 3.f.e y q.*.2.P.G.).).F.+XiXiXiXiXiXiXiXiX",
"iXiXiXiXiXiXiXiX,X~ H.m.G.).L $ 5 C 6 2.g. .B 0.9.' ;.>.< #.g.' y 8.w.K.#XoXoX+X!.,XiXiXiXiXiXiXiXiX",
"iXiXiXiXiXiXpXiX2X.X%XOX@X:XE.o A H 7 V j...k 1.0.[ ;.f.r #.f.< l 8.w.L.[.[.'.|.^.3XiXpXiXiXiXiXiXiX",
"iXiXiXiXiXiXiXiX<XE.{._._.`.D.8 D Q Q L 1.J H H 1.B %.f.< 1.f.e l 8.6.J.!.E.^.^.U.3XiXiXiXiXiXiXiXiX",
"iXiXiXiXiXiXiXiX>XU.^.W.W./.n.3 S H 7 H 7.J m r.5.z &.f.l V 3.l q 0.2.B.F.Q.Q.W.m.7XiXpXiXiXiXiXiXiX",
"iXiXiXiXiXiXiXiX-XM.W.Y.Y.~.) 3 Y m % 4.j.#.z 6.a.[ &.d.M p 7 k l w.V C ~ Q Q Q K 4XiXiXiXiXiXiXiXiX",
"iXiXiXiXiXiXiXiX7XR ( Q Q Q s 2 2.3.; 1.f. .l 3.9.' &.d.n a n j k p.N r.oX}.{.}.~.5XiXiXiXiXiXiXiXiX",
"iXiXiXiXiXiXiXiX7X^.}.'.'.|.v.% 9.h.> #.g. ., q.9.' :.@.& T u.- g s.M b.@XoXOXOX}.;XiXiXiXiXiXiXiXiX",
"iXiXiXiXiXiXiXiX<X`.OXoX[.@XG.& :.:.@ 3.g.] < d.=.' :...O P 5.O w a.M P '.^.^._.Q.&XiXiXiXiXiXiXiXiX",
"iXiXiXiXiXiXpXiX<XQ._.^.^.`.c.$ 9.-.@ 3.f. .{ q.=.' ;.g.* M 4.O = s.2.P ).~.W.W.U.&XiXiXiXiXiXiXiXiX",
"iXiXiXiXiXiXiXiX>XU.W.Q.Q.^.x.2 9.%.+ 3.f. .{ d.=.' <.f.O 1.N.> , a.4.G S.V.M.U.) =XiXiXiXiXiXiXiXiX",
"iXiXiXiXiXiXiXiX<XQ _ n./ n.K 7 p.3.O 4.f. .| q.=.' <.f., 3.k.e r e.0.C z./ ~ ! U qXiXiXiXiXiXiXiXiX",
"iXiXiXiXiXiXiXiX6Xn.Y.m.m.Z.S 2 1.G * 3.f.O.} w.9.[ ;.f.< 1.k.e y 0.h.L.:XOX%X%X XqXiXiXiXiXiXiXiXiX",
"iXiXiXiXiXiXpXiX2XOX%X%X*X%X!.4 J D 7 5.l.X.k 6.0.c &.:.< #.k.e y 9.h.K.'.`.`.{.^.7XiXiXiXiXiXiXiXiX",
"iXiXiXiXiXiXiXiX>XE._._.).}.Q.7 L r.L H 4.X.J H 5.} &.:.r X.k.e t 0.a.J.).~.W.^.Z.4XiXpXiXiXiXiXiXiX",
"iXiXiXiXiXiXiXiX>XZ.^.Q.W.^.n.8 S H D C X.B m H X.x -.-.1 #.k.u q e.p.B.!.T.~.~.M.4XiXiXiXiXiXiXiXiX",
"iXiXiXiXiXiXiXiX>X` Q.U.Z.Q.! 3 t.m 5 5.l.@.M i.w.[ d.O.> 3.k.0 > w.3.m I U U U W rXiXiXiXiXiXiXiXiX",
"iXiXiXiXiXiXiXiX2XU / ~ Q ! A 4 $.V ; $.d.%.b 8.8.' :.-.> 3.k.< > a.B i.G.H.D.D.A.tXpXiXiXiXiXiXiXiX",
"iXiXiXiXiXiXpXiX2X{.+XOXOX+XS.% 4.h.; B :.+.c *.9.' &.:.1 ..k.u r w.6.L.@X@X@X%X{.2XiXiXiXiXiXiXiXiX",
"iXiXiXiXiXiXiXiX<X^. X}.'.oXG.% @.,.; b f.O.r 8.9.] &.*.9 b k.e x e.s.K.].^.`.(.R.6XiXpXiXiXiXiXiXiX",
"iXiXiXiXiXiXpXiX<XQ.^.^.^.^.V.$ o.N.* n e.o.r $.h.[ *.*.k 9 l.y x 0.a.B.!.E.R.^.Z.3XiXiXiXiXiXiXiXiX",
"iXiXiXiXiXiXiXiX>XI.W.T.Y.~.n.. z p.  i 6.= N i N z B B 7 2 X.g h m r.b.F.U.U.T.` 3XiXiXiXiXiXiXiXiX",
"iXiXiXiXiXiXiXiX>XW _ ) ) ) E T y.z.T v.u.Y u.u.r.u.u.u.v.t.u.i.y.y.z.Y ~ ^ ) ) W 8XiXiXiXiXiXiXiXiX",
"iXiXiXiXiXiXpXiX>X( I.I.U.I.Q.}.{.`.{.{.`.XXXX`.`.}.`.{.{.}.{._.{.}.{.^.W.W.W./.C.-XiXpXiXiXiXiXiXiX",
"iXiXiXiXiXiXiXiX&XQ m.n.n.n.` / / ) / / / / / / / / / / / / / n./ / / ) n._ n.n.U &XiXiXiXiXiXiXiXiX",
"iXiXiXiXiXiXrXY.Q.n.V.m.V.m.m.m.Z.m.V.m.V.V.V.V.V.V.V.m.V.V.m.m.V.V.V.V.m.V.V.V.V.Y.U.rXiXiXiXiXiXiX",
"iXiXiXiXiXiX6XU..X}.|.}.XX}.}.}.}.}.}.}.XXXXXXXXXX|.|.}.XXXX}.}.XXXX}.}.}.|.}.}.XX.XZ.8XiXiXiXiXiXiX",
"iXiXiXiXiXiX0X` ~.Y.R.R.R.R.R.R.W.R.W.Q.Y.W.Q.W.R.R.Q.R.T.W.W.W.R.Y.W.Y.W.W.Y.Q.W.~.` 0XiXiXiXiXiXiX",
"iXiXiXiXpXiX0X( T.U.U.I.U.U.U.C.U.I.I.Z.I.U.U.I.U.U.I.U.I.I.I.I.U.U.U.U.I.I.I.U.U.U.^ 0XiXpXiXiXiXiX",
"iXiXiXiXiXiX0XE I.M.M.M.M.M.M.M.M.M.M.` M.M.M.M.` I.M.` M.M.M.M.M.M.M.M.M.M.M.M.` I.E 0XiXiXiXiXiXiX",
"iXiXiXiXiXiX0X( I.I.I.I.C.I.I.I.I.I.I.I.I.U.I.I.I.I.I.I.I.I.I.I.I.I.I.I.I.I.I.I.I.T.( 4XiXiXiXiXiXiX",
"iXiXiXiXiXiXwXW ( ( E ( ( ( ( ( ( ( ( ( ( ( ( ( ( ( ( E ( ( ( E ( ( ( ( ( ( ( ( E ( W 0XiXiXiXiXiXiX",
"iXiXiXiXiXiXpX0X4X4X4X4X4X4X4X4X4X4X4X4X4X4X4X4X4X4X4X4X4X4X4X4X4X4X4X4X4X4X4X4X4X4X0XiXiXiXiXiXiXiX"
};
