/* XPM */
static char *_7697e901511443cea84812e75a1b0b7in64SXq6iU87r0HM[] = {
/* columns rows colors chars-per-pixel */
"50 50 217 2 ",
"   c #030201",
".  c #0C0C0A",
"X  c #100B04",
"o  c #191208",
"O  c #1B150D",
"+  c #1A1916",
"@  c #281C0C",
"#  c #221C13",
"$  c #34230D",
"%  c #292317",
"&  c #25231C",
"*  c #342916",
"=  c #252422",
"-  c #2C2824",
";  c #2B2B2A",
":  c #352E29",
">  c #3A3526",
",  c #392B32",
"<  c #343435",
"1  c #3B3A39",
"2  c #442D0F",
"3  c #4A3314",
"4  c #493518",
"5  c #563A14",
"6  c #443C27",
"7  c #433B36",
"8  c #5F4118",
"9  c #654619",
"0  c #664619",
"q  c #714D1B",
"w  c #7A531D",
"e  c #46422D",
"r  c #54462D",
"t  c #494535",
"y  c #574B35",
"u  c #534D3B",
"i  c #56543E",
"p  c #624B27",
"a  c #6D532D",
"s  c #795825",
"d  c #665436",
"f  c #715A33",
"g  c #77633D",
"h  c #3F3F40",
"j  c #4A3941",
"k  c #3F4041",
"l  c #464644",
"z  c #4B4A45",
"x  c #4C4C4B",
"c  c #514A47",
"v  c #5D5B42",
"b  c #565348",
"n  c #4D4F50",
"m  c #5E4552",
"M  c #4E5053",
"N  c #535354",
"B  c #5A5A58",
"V  c #645B46",
"C  c #684F5C",
"Z  c #635857",
"A  c #69664A",
"S  c #786845",
"D  c #7E714C",
"F  c #6B6B55",
"G  c #766C53",
"H  c #747353",
"J  c #7C7958",
"K  c #656564",
"L  c #696A6B",
"P  c #766F69",
"I  c #6F7274",
"U  c #787876",
"Y  c #7B7C7C",
"T  c #885E24",
"R  c #8B642A",
"E  c #936526",
"W  c #9B6B28",
"Q  c #8C6B38",
"!  c #A06F2B",
"~  c #A5732C",
"^  c #AA762C",
"/  c #B27B2F",
"(  c #A87733",
")  c #B77E31",
"_  c #89744B",
"`  c #867C5A",
"'  c #917C53",
"]  c #8D7C63",
"[  c #AD8034",
"{  c #B98133",
"}  c #B8843B",
"|  c #CA9032",
" . c #D49634",
".. c #EAA83A",
"X. c #F5B23E",
"o. c #F8B43F",
"O. c #83835E",
"+. c #9A8556",
"@. c #BC8B42",
"#. c #BD8F49",
"$. c #B79249",
"%. c #BE914B",
"&. c #A08958",
"*. c #AB925E",
"=. c #BA9656",
"-. c #8A8565",
";. c #8C8B64",
":. c #968B68",
">. c #98936C",
",. c #86837C",
"<. c #9D9C70",
"1. c #AB9464",
"2. c #B59A63",
"3. c #A69A73",
"4. c #A6A376",
"5. c #ACAB7B",
"6. c #B9AA73",
"7. c #B3A97D",
"8. c #C08E44",
"9. c #C1924D",
"0. c #C19753",
"q. c #C39E5D",
"w. c #F7B644",
"e. c #EDB854",
"r. c #CA9F65",
"t. c #C5A365",
"y. c #C4A569",
"u. c #C9A568",
"i. c #C7A96C",
"p. c #C9AA6E",
"a. c #CAAB72",
"s. c #D4AD78",
"d. c #D3B07D",
"f. c #F4C15F",
"g. c #EAC472",
"h. c #9C768A",
"j. c #A17A8F",
"k. c #A57F92",
"l. c #7E8081",
"z. c #848586",
"x. c #878A8B",
"c. c #958F8F",
"v. c #8F9395",
"b. c #929698",
"n. c #9A9B9C",
"m. c #A88A95",
"M. c #9FA09F",
"N. c #B6B582",
"B. c #BFB286",
"V. c #BBBB86",
"C. c #BE92A8",
"Z. c #A6A8A9",
"A. c #BCA8A8",
"S. c #ADB1B3",
"D. c #AFB6BA",
"F. c #B6B8BA",
"G. c #C1B387",
"H. c #C2B588",
"J. c #C4B88A",
"K. c #D4BD98",
"L. c #C89BB1",
"P. c #C9B0B1",
"I. c #C5C38C",
"U. c #CCCB91",
"Y. c #D0C692",
"T. c #D3CC95",
"R. c #D7D699",
"E. c #E0DC9E",
"W. c #E1E09F",
"Q. c #D7C7AB",
"!. c #E4DFA1",
"~. c #E6D2B6",
"^. c #E4E2A2",
"/. c #E8E6A5",
"(. c #EBE9A6",
"). c #EEECA8",
"_. c #F0EFAA",
"`. c #F6F5AE",
"'. c #F8F7AF",
"]. c #F8F7B0",
"[. c #F9F8B0",
"{. c #DDB6C4",
"}. c #BEC1C3",
"|. c #BFC5C9",
" X c #C4C7C9",
".X c #C4C9CB",
"XX c #C8CACB",
"oX c #C7CFD3",
"OX c #C2D0D7",
"+X c #CED1D4",
"@X c #C5D3DA",
"#X c #CAD6DC",
"$X c #CDD9DF",
"%X c #D2D4D6",
"&X c #D4D8DA",
"*X c #D9DCDD",
"=X c #EBDBC4",
"-X c #F2E9D8",
";X c #CFDAE0",
":X c #D3DDE3",
">X c #DCDFE1",
",X c #D7E0E5",
"<X c #DAE2E6",
"1X c #DDE5E9",
"2X c #DFE8EC",
"3X c #E1E4E5",
"4X c #E0E7EB",
"5X c #E4EAED",
"6X c #E9EBEC",
"7X c #F9F3E8",
"8X c #E7EDF0",
"9X c #E9EEF1",
"0X c #EDF1F3",
"qX c #F2F5F6",
"wX c #F4F7F8",
"eX c #F6F8FA",
"rX c #F9FBFC",
/* pixels */
"OXOX@X#X$X;X:X:X,X<X1X1X1X5X5X5X5X8X6X8X9X9X0X9X9X0X0X9X0X9X9X9X9X9X9X6X5X5X4X4X1X>X1X:X:X:X;X;X;X@X",
"OX@X#X#X$X;X:X:X,X<X1X1X1X5X5X5X5X9X8X0X9X0X0X0X0X0X0X0X9X0X0X0X9X9X9X9X5X5X5X4X4X1X1X:X<X:X;X;X;X@X",
"OX@X#X$X;X:X,X,X<X1X1X1X5X5X8X8X5XS.>X0X0X0X0X0X0X0XqX0X0X0X0X0X9X9X9X9X6X5X5X2X2X1X1X1X<X:X:X;X;X;X",
"@X@X#X;X;X:X,X,X<X1X5X4X5X5X8X9X%X1 F.qXqX3X6X0X0X0X0XqX0X0X0X0X0X0X9X9X8X8X6X5X4X1X1X1X<X:X:X:X;X@X",
"@X@X;X;X:X,X,X<X1X1X5X4X5X8X8X0XZ.t Y 0X5XI +XqXqXqXqXqXqX0X0XwX0X0X9X9X8X8X8X8X4X4X1X1X1X:X:X:X;X@X",
"@X#X;X;X:X:X<X1X1X4X5X5X8X8X8X0Xz.5.v #X X- n.eXqXqXwXqXwXwX&X*XeX6X0X0X9X8X8X8X4X8X2X2X1X<X1X:X;X;X",
"#X#X;X:X:X:X<X1X1X5X5X5X8X8X8X0XY R.;.l.n.i B 6XqXqX6X0XeXeX}.N *XqX0X0X0X9X8X8X8X4X4X4X1X<X:X:X;X;X",
"#X;X;X:X,X<X<X1X1X5X5X8X9X9X0X9X-.R.W.b n >.i Z.rXeXXXl.3XrX>X& N <XqXqX0X9X0X6X8X8X4X4X1X1X<X:X:X;X",
"#X;X;X;X,X<X<X1X2X8X5X8X8X0X0X0X,.U.[.5.& 3.:.n 3XrX3X; l F.6XZ 2 K 3XqX0X0X9X9X8X8X6X1X2X1X1X:X:X:X",
"#X;X;X:X<X<X1X2X8X2X8X8X0X0X0XqXb.7.[.`.J V G.v z.rXeXK o # N t 0 3 I 9XwXwXqX9X8X8X5X2X2X1X1X1X:X:X",
";X;X:X<X1X1X2X4X5X5X8X8X6X0X0XwXv.J [.`.!.u -.7.u F.rXZ.4 T 4 o o @   B x.S.%X9X0X8X5X5X2X>X1X:X:X:X",
";X;X:X:X.X|.+X1X8X8X8X9X0X0XwX5Xx e /.`.[.V.e J > ; K N O E ) ( R f y e * + = K .X8X6X5X5X2X5X:X<X:X",
";X;X,Xl.= = - M b.&X0X0X0X0XwX XH O.4.[.`.].;.. e v A v > 4 / %.p.p.p.p.6.=._ > ; S.8X5X4X2X2X1X<X:X",
";X;X,XB 3 R S y # < v.1XqXqXeXF.;.W.F W.].`.(.v <.[.!.Y.U.e s } t.p.p.p.p.p.p.y.S < &X8X5X2X1X*X1X:X",
";X:X<Xb.% W s.-XQ.G # n  XwXeX XO.[.<.;.`.`.].I.u I.(.E._.5.* W 0.p.p.1.+.t.i.a.i.y h.2X5X5X4X<X<X:X",
";X:X:X:XI @ E r.=X7XP.u ; Z.wX5XF R.`.O.N.].].].-.J '.`.'.).6 8 8.p.p.V z i _ 6.a.+.l ,X5X5X2X1X<X:X",
":X:X:X1X:XI # q ) s.~.K.S & b.eXv.F _./.;.U.'.`.W.v R.'.'.V.* ( t.p.i.y < M x c ' y.t F.8X5X2X1X<X<X",
":X:X>X1X4X1Xv.= 2 ! ) 8.8._ # n.S.& ;.`.(.V.).'.[.<.>.[._.v q $.p.p.p.g . + < M z 1.g z.0X2X4X2X:X<X",
":X:X:X2X1X4X8X|.M # 9 ~ ) { T # < H v O.).'.`.`.'.W.J ).U.% E } t.p.i.Q ,.z.O . - 1.' z +X6X2X1X2X<X",
":X:X>X1X4X4X5X8X4Xb.1 @ q ~ ) T   ;.^.H A R.'.'.'.'.<.U._.H * ( #.p.p.R S.rXK   d y.S c M Z.1X5X1X<X",
":X:X1X1X2X4X8X8X<X XY +   @ 5 9 > O.[._.5.H 5.(.'.'.U.N.[.W.v 5 / %.u.R M.F.+   +.*.j L.A.b Z.5X1X4X",
":X,X,X1X2X8X.XY < # # : 6 r * X H H /.[.[./.I.W.'.'./.V.'.[.N.$ ^ %.y.( G }.x % *.y P C L.P.B OX1X:X",
":X,X,X2X&XI = * g 3.G.r.q.8.! * <.O.5.[.`.'.[.`.`.`._.U.`.[.J 9 @.t.i.%.a K B g _ C L.C.L.{.m.b.4X<X",
":X,X2XF.7 & ' Q.-X-Xd.8.( w # . 5.U.i I.[.'.'.`.`.`.`.W.`.R.6 W q.a.i.t.} T Q =.d j.k.j.m.L..X] 1X1X",
":X1XS.; r K.-X-XK.9.^ s $ = ] n 5.[.N.v ;.I.W._.`.`.`._.'.V.* ~ %.i.i.p.y.q.u.2., , , , , j m.I :X1X",
"<X|.< 9 @.s.y.@.E 9 $ # I %XqXb 5.`.[.W.5.<.5.U._.`.`.`.'.).v 8 ) %.i.p.p.p.p.p._ 7 h.k.m h l B <X<X",
"1Xb.% E E s 5 $ O < z.+XwXeX6XB 3.).[.`.[.[.'.`.'.`.`.'.'.[.U.* R { 0.p.i.p.i.p.t.6 ; 7 N +X+XD.2X<X",
",XD.< + O = k I S.<XqXwXwXwXqXZ 3.R.`.`.`.`.`.`.`.`.`.`.`.`.[.;.4 / } i.p.p.p.p.2.6 x.D.<X8X8X8X2X<X",
":X<X|.S.D.oX1X9XqXqXqXqXwXeXwXK :.Y.`.`.`.`.`.`.`.`.'.`.'.`.[.5.4 ) =.p.p.p.a.t.6 L 9XqX9X8X5X4X2X<X",
":X<X1X5X5X9X8X9X9X9X0XqXwXwXrXY J H.Y._.`.`.`.`.`.`.`.`.`.`.`.A w } y.p.p.p.q.p 7 >XqX9X9X5X5X2X2X1X",
":X<X<X1X2X5X8X8X9XqXqXqXqXwXrXn.V G.G.^._.`.`.'.`.`.`.`.'.'.W.6 W 0.a.a.i.#.r : {.qXqX8X9X8X8X4X2X<X",
":X:X<X1X4X5X6X8X9X9XqXqXqXeXrX Xt B.G.T.R._.`.`.`.`.`.`.`.[.5.4 } q.q.=./ 5 ; D.qXqXqX9X8X8X5X4X2X<X",
":X<X<X1X4X5X8X8X9X0X0XqXwXwXeX6Xx >.G.G.G./.'.'.'.`.`.`.`.].F s ) ) ) R $ 7  XwXqXqX0X9X9X9X5X1X1X<X",
":X<X<X1X2X5X5X8X9X9X0XqXwXwXeXrXx.d G.B.B.R.W.W.'.`.`.`.].E.6 W ^ T 3 + L *XeXwXqX0X0X0X9X6X5X2X1X1X",
":X:X<X1X4X5X5X8X9X0XqXqXwXwXeXrX%X1 3.G.B.G.G.G.!.T.E._.!.3.O % @ # N F.qXrXeXqXqX0X0X9X8X5X5X1X1X<X",
":X<X<X1X4X4X5X8X0X9X0XqXqXwXwXrX0XN t B.G.B.B.B.J.G.G.J.G.3.> # x.+XqXrXeXeXwXqXqX0X0X6X8X5X5X5X1X<X",
":X:X,X1X4X2X8X8X6X0X0XqXqXwXrX*XK t - G G.B.B.B.G.G.B.B.G.7.7 ` rXrXrXrXeXeXwXqXqX0X0X9X8X8X5X1X1X<X",
":X:X,X1X2X2X4X5X9X9X0XqXqXwX Xz G g.$.% G B.G.G.G.G.G.G.7.7 N 6XrXrXrXeXeXwXqXqX0X0X9X9X6X5X5X1X<X<X",
":X<X<X1X2X5X8X8X9X0X0X0XwX+Xz +.f.w.o.~ . t >.N.G.G.7.` * x <XrXrXrXrXeXeXwXqXqX0X0X9X9X8X5X2X1X1X<X",
";X:X,X,X<X4X2X8X8X6X0X0X3XB &.f.X.X.o.| b N O > 7 6 & - Y 5XrXrXrXrXwXeXwXqXqXqX0X0X9X9X5X5X4X1X<X<X",
";X:X,X<X1X1X5X5X8X9X0XqXn.D e.w.X.X.X.^ c.%XV s 9 9 u %XrXrXrXrXrXrXrXwXwXqXqXqX0X0X9X8X5X2X1X1X<X<X",
":X:X,X<X1X4X1X5X8X8X0X0XL [ o.o.X.X.X.E S.M.=.w.X...] eXrXrXrXrXwXrXwXwXwXqXqXqX0X0X8X8X8X5X1X1X<X:X",
"$X:X,X<X1X1X5X5X6X8X9X0Xn.4  .o.X.X.X.f  X] e.X.X...] wXrXrXeXrXwXrXwXwXqXqXqX9X0X0X8X6X5X5X2X1X<X<X",
"$X:X:X,X<X1X1X2X8X8X8X0XqXv.s X..... .V %X_  .w...| ] eXrXrXrXeXeXwXwXqXqXqXqX0X0X9X8X5X5X4X1X<X<X:X",
"$X;X:X,X<X1X2X5X5X8X8X8X0X4XA  . . .! ,.qXY p | | w ,.rXeXeXeXeXeXeXwXqXqXqX0X0X9X9X8X5X4X1X1X<X<X:X",
"#X;X:X,X<X1X1X5X5X6X8X0X0X0XU w 9 q p F.eXwX Xf p Z F.rXeXeXeXeXeXwXwXqXqX0X9X0X9X8X8X5X4X2X1X<X:X:X",
"$X;X:X:X<X<X1X5X2X5X8X8X9XqX X7 L l b 6XeXwXeXZ.M.7XwXeXeXeXeXeXwXqXqXqXqX0X0X9X9X8X5X5X2X1X<X<X:X:X",
"#X$X:X:X:X<X1X1X2X5X6X9X6X9X0X1X0X X+XwXwXwXeXeXeXeXeXeXeXeXqXeXwXqXqXqX0X0X0X9X9X5X5X5X1X2X<X:X:X;X",
"#X$X;X:X:X,X1X1X4X5X5X8X8X9X0X0X0XqXeXqXqXeXqXeXqXeXeXeXeXqXeXqXqXqXqXqX9X0X9X9X5X5X5X4X1X1X<X:X:X:X",
"#X$X;X;X,X,X1X1X1X2X5X6X8X8X0X0X0X0X0XqXqXqXeXqXeXqXqXqXqXqXqXqXqXqXqX9X9X9X9X9X9X6X5X4X1X<X<X:X:X:X"
};
