/* XPM */
static char *c7929eceee8249469a5538754b6f0e04a5UeBoNC7DuWhwPR[] = {
/* columns rows colors chars-per-pixel */
"50 50 149 2 ",
"   c #415F1A",
".  c #4F6C17",
"X  c #45651B",
"o  c #48671B",
"O  c #47691C",
"+  c #4B6C1C",
"@  c #506F19",
"#  c #4D731E",
"$  c #4F781F",
"%  c #52751D",
"&  c #547A1E",
"*  c #597D1D",
"=  c #537C20",
"-  c #587E20",
";  c #57801F",
":  c #5C831E",
">  c #5F891F",
",  c #61851E",
"<  c #638B1E",
"1  c #698F1E",
"2  c #66911F",
"3  c #68911F",
"4  c #568121",
"5  c #5B8421",
"6  c #5D8B22",
"7  c #5F9023",
"8  c #608721",
"9  c #608B20",
"0  c #638A21",
"q  c #628B21",
"w  c #618922",
"e  c #628B22",
"r  c #608C21",
"t  c #618D21",
"y  c #628C21",
"u  c #608D23",
"i  c #628D23",
"p  c #638F22",
"a  c #648C21",
"s  c #648D23",
"d  c #648E22",
"f  c #648F23",
"g  c #628C21",
"h  c #609021",
"j  c #639020",
"k  c #629221",
"l  c #609122",
"z  c #619122",
"x  c #609023",
"c  c #619023",
"v  c #639022",
"b  c #629023",
"n  c #619223",
"m  c #619323",
"M  c #629222",
"N  c #639223",
"B  c #659221",
"V  c #669321",
"C  c #669223",
"Z  c #679223",
"A  c #639422",
"S  c #629423",
"D  c #629623",
"F  c #639723",
"G  c #659423",
"H  c #669423",
"J  c #679423",
"K  c #619024",
"L  c #619224",
"P  c #619324",
"I  c #629324",
"U  c #669324",
"Y  c #639525",
"T  c #659524",
"R  c #649724",
"E  c #659724",
"W  c #649625",
"Q  c #679624",
"!  c #639323",
"~  c #6B9723",
"^  c #699624",
"/  c #699522",
"(  c #639823",
")  c #649823",
"_  c #659823",
"`  c #649923",
"'  c #659923",
"]  c #659A23",
"[  c #679A23",
"{  c #679B23",
"}  c #679C23",
"|  c #659824",
" . c #659924",
".. c #679824",
"X. c #669924",
"o. c #679825",
"O. c #669925",
"+. c #679925",
"@. c #659A24",
"#. c #669A24",
"$. c #669B24",
"%. c #679B24",
"&. c #679B25",
"*. c #659826",
"=. c #679A27",
"-. c #679D24",
";. c #659924",
":. c #699B22",
">. c #689B23",
",. c #6D9B22",
"<. c #6B9D23",
"1. c #6F9F21",
"2. c #689925",
"3. c #699925",
"4. c #689A25",
"5. c #699A25",
"6. c #689B25",
"7. c #6A9B25",
"8. c #699826",
"9. c #699B26",
"0. c #6A9A26",
"q. c #6A9B26",
"w. c #699C25",
"e. c #689D25",
"r. c #699D25",
"t. c #6A9C25",
"y. c #6B9C25",
"u. c #6A9D25",
"i. c #699D26",
"p. c #6A9C26",
"a. c #6A9D26",
"s. c #6B9D26",
"d. c #6A9C27",
"f. c #6B9E26",
"g. c #6B9E27",
"h. c #6C9D25",
"j. c #6C9F25",
"k. c #6F9F24",
"l. c #6C9D26",
"z. c #6C9E26",
"x. c #6C9F27",
"c. c #6A9C24",
"v. c #699D28",
"b. c #6CA026",
"n. c #6CA027",
"m. c #6EA124",
"M. c #71A122",
"N. c #70A123",
"B. c #71A223",
/* pixels */
"- % + X + 4 7 W <.d.b.9.d.d.9.5 8 , : @ % & # & $ 5 6 $ # # 4 *.$.$.$.d.d.` @.7 5 = # # X + # % + = ",
"4 4 - % + # 4 L ) d.| 9.d.x.d.y Z Z : . o + + & 4 6 - % + O 4 4 7 ` ` $.) -.@.4 $ # # O % # % % : 5 ",
"8 6 : 4 4 # # 4 6 | d.x.k.x.d.m.m.) y + X # : & - & : + + + + - & 6 m 2 m 7 $ + # # # 4 ; 6 6 > d 8 ",
"0 T ) m 5 - # 4 m | <.9.Z E ) ) 9.m 4 # $ 5 6 5 4 > 5 & = - = + # # 6 h 5 & # + 4 5 7 7 d.$.<.d.9.f ",
"d.| -.7 6 & % ; m E Z y 0 u L 0 u 4 # # 6 7 6 $.E 6 6 5 4 4 4 % % @ & # # # = 5 7 7 m.-.<.b.d.E d.x.",
"| | ) 2 > & & m m Z / 0 d u 6 5 6 - # $ 6 7 m d.d.Z 8 5 0 5 0 , , < * % # # 4 L 7 @.B.B.d.9.9.k.d.d.",
"9.| m < * & * < Z 9.T 5 0 5 - * # # # 6 Y m d.d.x.:.E / E y 0 8 , , * $ $ 4 6 | $.k.k.B.:.d 9.x.d.<.",
"$.| m : % # : m 9.9.u 0 0 5 - o O + 4 L T x.B.m.x./ ^ d 8 6 < y 3 ; # & ; 5 W T | / 3 3 < a E d.m.) ",
"7 7 4 $ # # 6 7 7 7 7 *.Z - + + + + u d 2 k.,.k.,./ f 8 a 9.| <.T 4 = % # 4 6 5 < d 1 < 8 8 0 8 T W ",
"4 # # # # O $ 7 6 6 6 *.Z - + o X + % & > 3 3 / / Z d f Z 9.d.) Y 6 $ # $ $ = - 5 , 5 5 * 5 4 - 6 L ",
"= # + $ 4 # # # + = = 6 a 5 = + X X X % * < d d Z d 8 8 6 E E m *.7 # # = = # - * 5 - = - = & = & & ",
"$ $ 4 4 4 4 # X o # - 4 - = + X o o + 4 4 : 0 0 0 0 d 0 Z | y 7 7 4 # $ $ # + # 5 5 = + % % + X X X ",
"5 6 > 5 6 5 4 O   X = = = o + X X X + - - - 5 4 y < ) -.) E > m 5 $ # $ = & o o = # + # + O + + . & ",
":.2 2 m 6 7 5 + X X O + + o o + % # + + 4 4 4 6 7 7 2 2 m m W 6 $ # $ 5 7 5 % + % + + # + O % # & 0 ",
"m.:.3 -.7 7 7 4 = X O + @ @ % 5 7 # + + + # 4 5 y y m 2 6 5 6 4 + $ 6 m 7 :.y 6 4 = # + # & 4 y E 3 ",
"k.k.m.b.7 7 7 7 5 $ + % @ 8 1 d 7 6 = = + # # # 5 ; : : & # # # # & 5 6 <.m.3 / m 6 5 # + : 6 | k.d.",
"9.8 y 0 6 7 7 5 6 4 $ + & < k.:.7 7 7 6 5 $ $ # + # # & $ # # O & 5 5 0 x.M.B.1.2 6 ; O % 4 :.9.$.b.",
"5 5 0 5 6 ) -.7 5 = # $ 6 ) m.<.7 v.d.W | 6 4 4 = $ # = $ + O & 6 6 , 0 0 1 3 k.3 ; # # & 5 6 ^ b.d.",
"a 8 6 0 0 y ) 7 4 $ & 6 m y d.m.Y v.v.b.d.m 6 4 $ 4 5 4 + X # 4 5 Z E 6 5 2 k.m.m 6 $ # > * 5 Z $.9.",
"9.T Z 0 5 6 L L 4 # # y 6 :.m.<.W W Z y y 0 8 5 4 5 5 # X X % : < 9.x.b.d.) m E 6 7 O % : > 0 ^ d.| ",
"E ) E : 5 y L 4 $ # # = E 2 k.m 9.v.Z 5 8 5 a 8 > < < * + . @ - 5 m | $.7 7 7 ` 5 & O % * : E :.| -.",
"m 6 6 & 5 5 6 6 6 # # = 2 2 < 2 ) d.| 5 0 5 5 8 > : * * + o + - 4 W | m 7 W 7 5 4 X O X % , 2 y 6 7 ",
"L 6 & % = 4 7 7 7 4 # $ 6 ) 5 5 4 5 5 - - 5 5 0 5 , , < * + & 6 6 ` ` 6 6 = ; # # X X X % < < E m 6 ",
"- # X X = 5 6 4 6 6 $ # $ $ # + # + O X + = % - 6 y ) Z 6 + $ = = = % & & # & & # = + O o + + & 4 $ ",
"= # o X % % & & 4 $ # # # $ # & $ $ # + O   O = : & 4 5 $ # # # $ # $ & & , m m 5 W 4 % + X X # # # ",
"= = # % . . & # # # = 4 4 7 y Z 6 7 7 5 = X X + % # # # # = 4 6 5 = $ # : < 2 2 m ) 6 = 4 & - = 4 5 ",
"= $ & + . % & & 4 & 7 m W / E 2 < 0 m 7 6 $ O + # # # = 4 7 *.7 6 6 # # * Z 2 E -.` y : 4 : 5 5 4 = ",
"= $ & & % : > y 6 E d.d.E k.3 3 1 < y 7 7 6 $ # = # 4 7 W 6 6 6 6 4 + # & m m -.m E d.T y Z E m 5 7 ",
"4 = # + # : 7 m m m Z | Z 0 0 0 d y Z $.7 6 4 # $ 4 L W W 4 8 0 4 % # # = L 7 7 d.9./ m.d.9.x.x.` @.",
"4 #   + # & 6 > y 0 5 6 0 > 4 0 Z Z m | 7 5 4 # # 5 7 | W 6 5 0 5 - = # $ 6 6 m 9.Z Z Z u d Z 9.b.7 ",
"$ O + + O $ 5 4 - - - & 4 4 : 4 6 m m 5 4 4 = + # 4 y 6 T ^ 0 8 5 6 4 # # = y 6 m Z d 0 d / T 7 7 7 ",
"# O   + X O # X o o o + + & & & : 4 5 5 $ # # # # = = 6 | ^ 4 Z 7 6 5 + + - 6 6 d y 0 y y m m 6 7 5 ",
"+ O O 4 > 6 4 = $ % # X X X & % * & + o + + + # + o + - 6 E :.m.<.7 m # o 6 6 8 8 8 y y m m > 5 5 & ",
"# + # - : 7 6 7 6 6 5 + X X . @ @ + + & = = + + o + o # y E <.3 2 2 y + X = 5 5 0 6 6 8 Z ) m > & # ",
"# + - 5 > 7 m m W 7 6 4 & + o + o + % - % 5 & @ + + o # < < , , < d & + X = 4 Z 5 - & % > < * % # % ",
"6 L 7 ` -.<.m.d.` 7 7 7 - & + o o @ = - - 0 y 5 = 4 # + % @ * , , : + # + $ # # + + o + o % . % % 6 ",
"W | y ,.m.m.d.:.0 > m m 5 - & X o & 5 5 0 < m y Y 5 4 # + # & & % + # & # # O X X X + + . @ @ % : 6 ",
") d.N.M.M.:.d d 5 > 6 m 6 4 % X # y > < Z 9.d.) 6 6 4 $ # o + + + & $ 4 ; & + O = @ @ # + @ . * 0 m ",
"d.d.m.M.M.3 3 < 0 6 : - & & % % 6 E 2 E d.T 9.x.Y 7 6 4 # # # # & 5 4 : : : > # = - = % # % , < 5 ` ",
"x.m.x.m.k.< 1 < > : - & & + @ & 2 ) 2 m.m.9.T x.v.7 6 = # # $ = 6 6 6 < < 2 2 : & - & # # & m > 6 d.",
"9.9.d.9.5 < a 5 4 5 - 4 # o % * 5 ,.3 2 :.x.d.x.v.*.6 = # O - T m m Z ,.N.3 1 0 * - = + O + - W $.$.",
"m E ) 5 : - * = = - + # X o + % * d < , 9.0.x.x.v.Y 5 # X X 5 u > ) x.x.,.a a 0 8 - = # X + 5 6 ` $.",
") ) 6 5 4 & = o X + % @ o + + X + @ % 5 8 0 9.=.v.L 4 + X + 5 5 : m x.0.d , 0 8 5 = @ = O X = - ` ` ",
") m 5 & % + o + X + % * * & % + o o o + * 6 6 T x.T 4 # + # 5 & 5 0 f a 8 a 0 5 - 8 # @ + o = i ` ` ",
"d.4 4 $ + X # % * * : , < 8 & - = X # $ 4 7 d.d.9.6 7 4 . % 5 * 4 5 0 0 8 5 - 0 5 : 4 : $ # = = 5 ` ",
"- $ # # + & 4 - , < < < < , 4 5 - # + # = W ) $.d.Z 6 : % + > m y Z 0 8 8 & 5 0 d > y m 5 # + # $ 6 ",
"# # # 4 & - 4 > , < 2 2 < 0 : 6 7 6 $ # = 7 ` | ` m 7 ; % % 5 Y m | m y a 0 y 0 , Z 2 < L 5 # # # ; ",
"# $ 4 7 6 : y m Z Z b.d.d.d.E E ` 6 4 $ # 4 7 7 m W 4 # # = 5 7 y E d.Z d 0 9.Z * > E 2 Z u % = & & ",
"+ + 4 6 7 6 7 v.6 Y v.x.d.9.d.<.m 6 ; % % & & 6 m 5 & $ $ $ 7 7 | b.d.| d.9.| 9.7 5 m 6 > & . @ # # ",
"O O + $ 7 6 7 ` ` v.v.x.x.d.x.) m y : % % * & 4 6 $ = $ + 4 7 ` d.d.W W d.m.d.) m 5 & ; & . % . o . "
};
