/* XPM */
static char *_56cc0fca48e4cb8e1b8fb7a51cd5919mImGkVszkN6OIwIq[] = {
/* columns rows colors chars-per-pixel */
"50 50 240 2 ",
"   c #390A0B",
".  c #56160F",
"X  c #4D2727",
"o  c #5F5A54",
"O  c #6A4648",
"+  c #7B675E",
"@  c #786A67",
"#  c #7D746E",
"$  c #76716B",
"%  c #7B7372",
"&  c #746D69",
"*  c #83443F",
"=  c #965858",
"-  c #A86658",
";  c #875F60",
":  c #856863",
">  c #966C6B",
",  c #85746D",
"<  c #9D716B",
"1  c #827A74",
"2  c #877B76",
"3  c #997373",
"4  c #A86A67",
"5  c #A87B78",
"6  c #B67B7E",
"7  c #AF726F",
"8  c #C07A7A",
"9  c #84827E",
"0  c #8B837C",
"q  c #8D8777",
"w  c #93827D",
"e  c #9D827C",
"r  c #978378",
"t  c #A4837C",
"y  c #B78177",
"u  c #7D8184",
"i  c #8C8683",
"p  c #8C8982",
"a  c #8A8A87",
"s  c #938B84",
"d  c #958C8B",
"f  c #998985",
"g  c #9B938D",
"h  c #979487",
"j  c #9B9894",
"k  c #AA8B88",
"l  c #A78883",
"z  c #BB8482",
"x  c #B18B83",
"c  c #B68987",
"v  c #A7948B",
"b  c #B4948D",
"n  c #B9958C",
"m  c #A39B95",
"M  c #AB9C95",
"N  c #A29D99",
"B  c #A99895",
"V  c #BA9593",
"C  c #BB9B94",
"Z  c #B59E9B",
"A  c #BB9C99",
"S  c #B69695",
"D  c #AC8D92",
"F  c #9EA29D",
"G  c #A6A19C",
"H  c #ACA29D",
"J  c #ADA397",
"K  c #B4A29B",
"L  c #B7A898",
"P  c #B1A996",
"I  c #B29BA3",
"U  c #AE9FA2",
"Y  c #A6A4A3",
"T  c #AEA6A3",
"R  c #ACABA9",
"E  c #B3A6A3",
"W  c #B4ACA4",
"Q  c #BBABA4",
"!  c #B3ACA9",
"~  c #BCADAB",
"^  c #B6B4AC",
"/  c #BBB2AB",
"(  c #B8B6A7",
")  c #B5AEB0",
"_  c #BBB4B2",
"`  c #BFB9B4",
"'  c #BAB9B7",
"]  c #C88886",
"[  c #C5968E",
"{  c #C88F91",
"}  c #C59694",
"|  c #CD9593",
" . c #C49B95",
".. c #C59B9A",
"X. c #CB9C9C",
"o. c #CB9F96",
"O. c #D49996",
"+. c #D48C8D",
"@. c #E19C95",
"#. c #C5A39C",
"$. c #CCA39B",
"%. c #C8AB9B",
"&. c #D4A99F",
"*. c #D5A29D",
"=. c #E6A99E",
"-. c #CA9DA2",
";. c #C3A4A3",
":. c #C3AAA5",
">. c #CCACA4",
",. c #C3ACAA",
"<. c #CAABAA",
"1. c #CAA5A4",
"2. c #D5A3A4",
"3. c #D1AEAA",
"4. c #DBADAA",
"5. c #D9AAA4",
"6. c #C2B6AD",
"7. c #CFB2AE",
"8. c #C4B9AE",
"9. c #C2B9A6",
"0. c #D4B3AC",
"q. c #DBB4AB",
"w. c #DAB4A8",
"e. c #C2B5B1",
"r. c #CDB5B3",
"t. c #C4BBB4",
"y. c #CCBCB5",
"u. c #C4BDBA",
"i. c #CCBCBA",
"p. c #CBB7B9",
"a. c #D3B4B2",
"s. c #D3BCB4",
"d. c #DBBCB4",
"f. c #DBBCBA",
"g. c #D6B8B7",
"h. c #E7A9A5",
"j. c #E3B5A9",
"k. c #E4BBB5",
"l. c #E3BDBA",
"z. c #EABCB7",
"x. c #F5BEBB",
"c. c #F4B4AF",
"v. c #BDC2B8",
"b. c #B9C1AC",
"n. c #C4C3BC",
"m. c #CBC4BC",
"M. c #CCCABC",
"N. c #C9C5B5",
"B. c #D4C4BB",
"V. c #D3CBBF",
"C. c #D7C7B6",
"Z. c #DDD4BE",
"A. c #D2C1AD",
"S. c #F1C3AE",
"D. c #ECC5BD",
"F. c #E7C3B6",
"G. c #F5C5BD",
"H. c #F8C7B9",
"J. c #CEBFC2",
"K. c #CBC5C1",
"L. c #CDCCC4",
"P. c #C9C8C6",
"I. c #D4CBC4",
"U. c #DACDC4",
"Y. c #D8CAC8",
"T. c #DAD3C5",
"R. c #D6D4CC",
"E. c #DCD4CB",
"W. c #D9D7C9",
"Q. c #CDD4D4",
"!. c #DCDAD4",
"~. c #DADADB",
"^. c #D9D4D2",
"/. c #D7CFCB",
"(. c #ECCCC2",
"). c #E2CCCC",
"_. c #E8C8C5",
"`. c #F5CCC5",
"'. c #F2CDCA",
"]. c #FBCCC7",
"[. c #E4D2CD",
"{. c #E3DCCD",
"}. c #E9D5CA",
"|. c #FBD5CA",
" X c #E4D5D2",
".X c #ECD3D4",
"XX c #E4DBD4",
"oX c #EADBD4",
"OX c #E4DDD9",
"+X c #EBDEDB",
"@X c #E4D3D9",
"#X c #F4D3D2",
"$X c #FDDDD9",
"%X c #F9DBD5",
"&X c #E4CFD4",
"*X c #E4E2D5",
"=X c #EAE2D6",
"-X c #ECE3DC",
";X c #E3E2DC",
":X c #F3E3DD",
">X c #F7E4D8",
",X c #F6F1DD",
"<X c #F4DEE1",
"1X c #DDEAF0",
"2X c #E4E5E2",
"3X c #EEE4E3",
"4X c #EDECE5",
"5X c #EAEBEA",
"6X c #E5EBE1",
"7X c #F2E5E2",
"8X c #FAE6E4",
"9X c #F3EBE3",
"0X c #FDECE6",
"qX c #F5E4EA",
"wX c #F4EDEA",
"eX c #F9ECEB",
"rX c #EDF4ED",
"tX c #F2F1E5",
"yX c #F4F4EB",
"uX c #FCF4EC",
"iX c #FFF9EE",
"pX c #F6F8ED",
"aX c #FBEEF1",
"sX c #EDF4F3",
"dX c #EDFBF5",
"fX c #EFF8F9",
"gX c #F4F4F4",
"hX c #FDF5F4",
"jX c #F5FCF5",
"kX c #FEFBF4",
"lX c #F6F4FA",
"zX c #FDF6FB",
"xX c #F5FCFB",
"cX c #FFFCFF",
"vX c #FCFFFF",
"bX c #FFFEFF",
"nX c white",
"mX c #FEFFFF",
"MX c #FEFEFD",
"NX c #FEFEFE",
/* pixels */
"nXnXnXnXnXnXnXnXzXnXxXfXvXkXuXT.1.Z zXgXnXnXMXjXvXnXnXaXvXfXMXMXnXnXnXnXnXnXnXnXnXnXnXnXnXnXnXnXnXnX",
"nXnXnXnXnXnXnXnXkXvXvXvXhXY.U.M.].0.hXnXnXzXgXjXvXnXzXnXvXvXlXzXnXnXnXnXnXnXnXnXnXnXnXnXnXnXnXnXnXnX",
"nXnXnXnXnXnXnXnXnXlXvXnX+X3.D.F.H.7.+XzXzXnXgXnXvXMXqXMXvXxXgXnXnXnXnXnXnXnXnXnXnXnXnXnXnXnXnXnXnXnX",
"nXnXnXnXnXnXnXnXzXnXvXhXf.z.|.H.].0.-XzXzXnXzXwXyX8X).7XxXvXxXnXnXnXnXnXnXnXnXnXnXnXnXnXnXnXnXnXnXnX",
"nXnXnXnXnXnXnXnXzXnXgXkX<.z.H.S.H.>.4XzXnX3X@Xe..Xf.3.p.wXvXvXzXnXnXnXnXnXnXnXnXnXnXnXnXnXnXnXnXnXnX",
"nXnXnXnXnXnXnXnXnXnXgXnXa...$.q.| C kXnXzX,.f.f.X.| X.V +XgXnXnXnXnXnXnXnXnXnXnXnXnXnXnXnXnXnXnXnXnX",
"nXnXnXnXnXnXnXnXzXvXxXzX@XS ..>.l Q 4XgX3Xa.z.$.4 y { X.).kXnXzXnXnXnXnXnXnXnXnXnXnXnXnXnXnXnXnXnXnX",
"nXnXnXnXnXnXnXnXMXxXfXQ.3X<.g.K S E N F _ '.} . = 8 +.4.Y.zXnXzXnXnXnXnXnXnXnXnXnXnXnXnXnXnXnXnXnXnX",
"dXxXvXvXnXMXvXjXgXvX) U E / ` ^ N.m G u.M x [ = . 8 2.1.&XzXnXlXjXnXnXgXzXzXzXzXvXvXvXvXvXvXzXnXzXvX",
"vXvXnXhXlXnXnXnXvX5X% d ! H m n.m 0 9 R _ S  .X.4 { } _.zXzXnXnXvXnXhXMXnXnXnXnXgXzXjXMXMXvXvXxXnXnX",
"nXlXzXnXzXMXgXvXjXvXP.! 1 T H $ y.J / R./ B %.x O.X.V +XnXnXsXvXnXxXnXnXnXxXvXxXnXnXnXnXvXvXvXxXnXnX",
"zXzXgXlXnXvXvXvX6Xa d 5X% $ G M f T.t.E y.M w t n 0.).wXnXvXjXvXnXzXnXvXrXjXvXjXeXzXzXMXgXgXvXvXzXjX",
"nXnXMXjXnXvX5Xn.N & 2 ! o ^ MXI.v J K W ~ e.8.w v  XkXnXlXvXvXvXzXzXnXvXjXMXMX9X.Xp.~ <.m.3XkXkXnXnX",
"MXtXrXMXkX!.E d K Q / K i ^ ^.K.L 9.s E uX:Xm.M.M I.nXnXxXnXvXjXzXMXxXjXkXMX9Xy.<.g.8X8Xs.,.[.0XnXnX",
"kXU.e.U.V.C k ..< C g./ ( j s g J r h I.wXwXiX-XW u.gXvXgXnXkXMXnXnXjXkXMX:XB.a.iX5.x V b  .0.0.5XvX",
"%.0.C.0.0.4.O.6 6 < a.[.eXK.^ N q ( M.+XwX-X9X3XI.!.nXnXgXnXMXMXzXvXvXvXkXI.d.8Xw.n k.>X`.&.$. .n.5X",
"z $XG.$X<.5 O O < 0.iXiXpX*XpXC.=X=XN.iX[.9XkX X` m.wXMXuXMXMXMXzXvXsXkXuX1.uXD.I @XnXnXnXzX@XI 1.#X",
"< z.].4.< X   X > #X0XtXpX,XZ.A.V.iXV.tXiX9X:X!.G # m K.MXnXMXMXgXvXdXkX[.>.`.C Y.aXnXvXjXvXaX).X.0.",
"V } c.] =   X + b kX:XtXpX=X9.A.{.{.T.,XiXm.g E 0 p m a !.nXMXkXgXnXvXMXB._.`.n aXMXnXvXvXvXzXzXX.y ",
"%X> 7 7 ] = ; f ).kXXXtXiXN.L }.kX( iXuX-XI.s i m R.m.T N ;XMXnXhXvXvXyX,.|.D.>.zXvXvXvXvXnXnXnXl.5 ",
"+Xl 6 6 4 4 A +X:X-X3XtX:X9.C.>X:XW.uXV.E.9X Xs K.XX_ K.j ' nXnXnXnXjXkX<.%XF.F.vXvXvXvXvXxXjXnX|.5 ",
"nXi.l c n `.$X7X-X*XuX-XT.8.=XZ.V.iX( ( 9X=XkXm.K.K.m.` N j MXvXzXnXnXkXr.(.k.w.nXnXnXnXMXxXvXnX_.b ",
"5X;XL.oX{.oXoXT.{.=X=X/._ t.{.M.{.{.J T.kX-XkXeX^ `  X` Y Y ;XMXaXnXjXkX;.4.w. .xXkXnXnXzXnXnXnXK.B.",
"vX6X^ n.b.h ( N.Z.[./ m.( N.W.;XT.v ( -XuXkXuX9Xm.G _ L.` n.Y nXzXnXMXhX,.0.H.&.5XgXzXnXnXnXnXzX.XnX",
"vXvX5X!.L.L.N.( P 9.( Z.yXM.) n.~.$ / MXeXiXyXyXoX8.! K.E K.! wXjXvXnXzXi.3.|.j.<.kXvXxXfXnXMXvXnXnX",
"nXvXnXkXjXpX*XM.{.,X=X,XkXyXlXzX/.g m.wX-XyXiX{.I.y.~ t.T u.R K.vXjXnXzX+X<.].S.-.7XvXxXxXnXlXvXnXnX",
"lXvXnXMXkXMX6XL.M.T.!.yXkXkXnXMXZ U M.iXkX,X.XC f J M H E _ u.! vXgXnXzXzX>.j.S...i.nXvXxXnXlXvXnXnX",
"nXnXnXzXnXkXjXrXV.M.W.kXMXMXnX~.3 B m *XuX).l.} M 6.H m U j n.T 5XjXnXzXzXr.#.D.5.A kXjXvXnXMXvXnXnX",
"nXnXMXvXMXkXMXMXMXuXyXnXnXnXvXR v A 2 M C.s.|.G.f ~ / t.K.N u.Y /.nXvXxXhX.X#.G.x.n 9XjXnXzXnXvXnXnX",
"zXMXnXvXzXvXMXMXkXnXnXhXsXvXsXu f a.x b w.k.`.5.q j v T _ d ` ! ^ zXvXvXhXhX>.|.]. .[.kXnXnXnXnXnXnX",
"nXnXnXnXnXnXnXnXwXnXnXnXzXnXvXY 3 d.w.5.j.w.>.b U.i.f % % % _ u.H 5XvXvXzXhX<.`.c.$.M.kXnXnXzXnXnXnX",
"MXvXgXzXnXnXMXMXnXnXgXnXnXxXnXfXb 3.O.O.+.[ %.C.U.U.e./ _ ` K._ j R.vXxXnXqX#.k.=.&.8.kXzXzXnXnXnXnX",
"nXnXnXnXnXnXnXnXkXnXnXgXnXnXhXnX%.x { 5.*.h.y (.9X9X XM./ / / t.,.N vX1XzX<XS F.h.< [.vXvXMXnXvXnXnX",
"nXnXnXnXnXnXnXnXnXnXxXnXnXnXxXvX=Xr 3  . .d.s.=X9X3X-XR.t.~ / 8.Q G Q.vXzXa.'.z.=.c 9XnXnXzXvXvXnXnX",
"nXnXnXnXnXnXnXnXnXxXzXnXnXxXnXnXpX0 Q }.[.:XyXtX-X3X9X-XR./ E / :.W F vX).c H.h.O.1.kXnXnXzXhXjXnXnX",
"nXnXnXnXnXnXnXnXnXgXnXnXgXkXnXzX^ 0 ^.hXyX-XyX!.-X=X:X9XXXt.W W Q ( j R -.+.] @.x s.MXvXnXnXxXvXnXnX",
"nXnXnXnXnXnXnXnXMXlXnXnXgXnXzXQ.d R :X+X:XXX-XXX-XOXOX7X-XU.6.E L ~ H 2 n h.+.8 b  XnXjXMXzXMXvXnXnX",
"nXnXnXnXnXnXnXnXnXMXMXnXnXnX~.j B [.8X X8XqX7X:X-X+XXX=X3XXXN.W ~ ( ( v 5 O.c.4 g.wXvXvXlXnXxXvXnXnX",
"nXnXnXnXnXnXnXnXnXnXMXMXvX5XR a M }.=XXX+X:XoX{.=X-X*XOX=X*XK.E ~ ^ R K > z 2.z qXnXjXvXlXnXzXvXnXnX",
"nXnXnXnXnXnXnXnXMXnXnXnXsX' j Y ( *X*XtXW.*X-X-X X-X-XXX=X+XK.E T ! j m : z 5 ].zXnXsXnXgXvXvXvXnXnX",
"nXnXnXnXnXnXnXnXxXvXnXgXzX) j R <.:XOXOX8XoX-X;X5XOX;XL.W.tXM.J Q E B , 3 i m.MXnXnXnXnXnXnXnXnXnXnX",
"nXnXnXnXnXnXnXnXvXgXnXnXnX3Xd N ~  XR.*X7X).E.R.Y.U.qX-X-XXX~ M ~ B w B % u.rXMXnXnXnXnXnXnXnXnXnXnX",
"nXnXnXnXnXnXnXnXvXvXnXhXaXkXN U / tX;XR.m.,./ n.B.6.i.[.oX X~ E d s i & % Q.vXsXnXnXnXnXnXnXnXnXnXnX",
"nXnXnXnXnXnXnXnXfXvXyXe.K r.2 # q v.v.( B..XT.N.U.8.8.y.i.Q d 2 i i i & K.5XvXxXnXnXnXnXnXnXnXnXnXnX",
"nXnXnXnXnXnXnXnXMXnXoX9.3.b t + 2 L M.M.B.<.K ( ( M.I.M.! d i 9 a 2 1 ^.zXnXsXvXnXnXnXnXnXnXnXnXnXnX",
"nXnXnXnXnXnXnXnXnXOX#.S.%X&.`.F., 2 K g.4.c K kXN.N.W J v 2 a i , @ Z .X/.+XMXMXnXnXnXnXnXnXnXnXnXnX",
"nXnXnXnXnXnXnXnXzXp.t [ =.@.G.|.l.D l c 2.} S :XzX).f 3 3 @ , # f l _.r.Z M 0XyXnXnXnXnXnXnXnXnXnXnX",
"nXnXnXnXnXnXnXnXzX.X .] - 7 y  .c ..4.2.| { X.hXzX.X..-.-.x :.g.(.D.q.$X}.>.,.hXnXnXnXnXnXnXnXnXnXnX",
"nXnXnXnXnXnXnXnXnXnXnXzXsX5X~.~.zXvXnXnXvXvXMXMXpXkXY.D ;.3.X.h.D.w.[ 0.b l <..XnXnXnXnXnXnXnXnXnXnX",
"nXnXnXnXnXnXnXnXvXzXnXnXnXnXMXkXvXvXnXnXzXvXnXnXjXkXhXeXzXhX_.X.y [ C F.0.).hXzXnXnXnXnXnXnXnXnXnXnX"
};
