/* XPM */
static char *_4707d2146814336db087ffc04337e32K6R7wipvAWnOUZmL[] = {
/* columns rows colors chars-per-pixel */
"80 80 242 2 ",
"   c #493B09",
".  c #5B330E",
"X  c #56370D",
"o  c #5C3510",
"O  c #623710",
"+  c #653A12",
"@  c #6B3D13",
"#  c #633E1A",
"$  c #6A3B0F",
"%  c #364B04",
"&  c #235500",
"*  c #265A00",
"=  c #295E01",
"-  c #2A5302",
";  c #375905",
":  c #2C4F02",
">  c #2C6402",
",  c #2F6902",
"<  c #326504",
"1  c #326C03",
"2  c #396909",
"3  c #347402",
"4  c #367A02",
"5  c #387E03",
"6  c #39740A",
"7  c #3B7C0B",
"8  c #377208",
"9  c #3E7712",
"0  c #3E661A",
"q  c #474709",
"w  c #485A0B",
"e  c #5D5713",
"r  c #544E11",
"t  c #6D4015",
"y  c #6A411B",
"u  c #664816",
"i  c #724416",
"p  c #754619",
"a  c #76491A",
"s  c #7B4B1A",
"d  c #754917",
"f  c #685616",
"g  c #79531A",
"h  c #46630B",
"j  c #436711",
"k  c #437B16",
"l  c #5A6413",
"z  c #744C24",
"x  c #78532C",
"c  c #6A4F28",
"v  c #677028",
"b  c #814F1B",
"n  c #84521D",
"m  c #8A571F",
"M  c #8B591F",
"N  c #845522",
"B  c #8C5A21",
"V  c #875A2A",
"C  c #915E22",
"Z  c #865C30",
"A  c #8E622B",
"S  c #956225",
"D  c #9A6526",
"F  c #9C6A2A",
"G  c #976629",
"H  c #966B3A",
"J  c #8C6638",
"K  c #A16E2B",
"L  c #A57535",
"P  c #A6732E",
"I  c #8F6F4C",
"U  c #A47C4A",
"Y  c #9A7F60",
"T  c #3A8303",
"R  c #3E8C03",
"E  c #3E830B",
"W  c #3B8505",
"Q  c #3F9002",
"!  c #408E06",
"~  c #428C0C",
"^  c #41850F",
"/  c #419403",
"(  c #459B03",
")  c #45930B",
"_  c #469A0B",
"`  c #499C0C",
"'  c #489E07",
"]  c #428413",
"[  c #468B13",
"{  c #498E16",
"}  c #49881C",
"|  c #4A9214",
" . c #4B9B14",
".. c #4A9719",
"X. c #519B19",
"o. c #509D0F",
"O. c #47A004",
"+. c #49A405",
"@. c #4DAB07",
"#. c #4CA40C",
"$. c #4EAB0B",
"%. c #50A90C",
"&. c #52B407",
"*. c #56BA05",
"=. c #59BE05",
"-. c #53B30B",
";. c #59BC09",
":. c #57B90A",
">. c #4EAD12",
",. c #4EA418",
"<. c #53A719",
"1. c #51B115",
"2. c #58B91B",
"3. c #4C8A22",
"4. c #538E29",
"5. c #4B9827",
"6. c #569928",
"7. c #5A9736",
"8. c #4E9E31",
"9. c #4DA326",
"0. c #58A626",
"q. c #55AC37",
"w. c #58B736",
"e. c #56B429",
"r. c #74B93E",
"t. c #69B030",
"y. c #699938",
"u. c #5DC405",
"i. c #5DC30C",
"p. c #5DC417",
"a. c #62CB06",
"s. c #64CD09",
"d. c #60C708",
"f. c #66D10A",
"g. c #69D50A",
"h. c #6DDC0D",
"j. c #63CE13",
"k. c #62CC1B",
"l. c #6AD817",
"z. c #71E20F",
"x. c #71E310",
"c. c #71E31C",
"v. c #6FE016",
"b. c #5DC327",
"n. c #5DC535",
"m. c #61CD28",
"M. c #67D526",
"N. c #61CE38",
"B. c #67D738",
"V. c #72E328",
"C. c #71E237",
"Z. c #689646",
"A. c #6D924F",
"S. c #58B948",
"D. c #5CBA56",
"F. c #58AA47",
"G. c #73B04E",
"H. c #6DB463",
"J. c #5DC548",
"K. c #5EC652",
"L. c #61CD46",
"P. c #6AD944",
"I. c #63CB58",
"U. c #6BD859",
"Y. c #75E35A",
"T. c #67C667",
"R. c #6AD265",
"E. c #6CC976",
"W. c #74D87A",
"Q. c #73C974",
"!. c #78E36F",
"~. c #908A4E",
"^. c #82BA54",
"/. c #AC9472",
"(. c #88B369",
"). c #BBA47A",
"_. c #AB8956",
"`. c #84C256",
"'. c #98CC77",
"]. c #92C86B",
"[. c #A1D279",
"{. c #74CD87",
"}. c #78D786",
"|. c #7CD597",
" X c #7FDD96",
".X c #9CBB86",
"XX c #B9AA94",
"oX c #B1AE8C",
"OX c #B6A696",
"+X c #C7B595",
"@X c #C9BCA8",
"#X c #84D69E",
"$X c #96D59A",
"%X c #95D08C",
"&X c #B6D79B",
"*X c #A9CC93",
"=X c #86DBA7",
"-X c #98D9A9",
";X c #88DFB3",
":X c #9DDDB3",
">X c #B6D5AE",
",X c #85E4AA",
"<X c #8BE3BC",
"1X c #88E2B4",
"2X c #95E2BA",
"3X c #AAE2BD",
"4X c #D2C3AC",
"5X c #C4D7B7",
"6X c #D1CCB4",
"7X c #C8E3BA",
"8X c #CAE7AE",
"9X c #8CE5C1",
"0X c #9DE8C8",
"qX c #B9E4C8",
"wX c #B1EAD0",
"eX c #BADFC0",
"rX c #D8D6CA",
"tX c #CFD7C5",
"yX c #E2DCD5",
"uX c #E3D9C9",
"iX c #C7E6CC",
"pX c #DAE7D8",
"aX c #D1EAD2",
"sX c #E4E8DB",
"dX c #E6F0DF",
"fX c #DEECE2",
"gX c #DDF2E7",
"hX c #E5ECE4",
"jX c #EAEAE5",
"kX c #EDEDED",
"lX c #EBE7E3",
"zX c #EDF1ED",
"xX c #E7F2E7",
"cX c #EFEFF0",
"vX c #F0EFF1",
"bX c #EFF3F1",
"nX c #F3F3F3",
"mX c #F7F7F8",
"MX c #F8F7F8",
"NX c #F9F9F9",
"BX c #F7F8F7",
"VX c #F0F4ED",
/* pixels */
"NXkXnXNXkXMXnXkXNXkXnXnXkXNXcXcXNXkXMXnXkXNXkXnXMXlXNXnXcXNXkXmXnXkXBXpXfXgXaXxXxXxXNXzXBXmXkXNXkXcXNXkXNXnXkXNXkXnXMXkXNXcXcXNXjXmXnXkXNXkXnXnXkXNXcXcXNXkXMXMX",
"nXnXnXkXnXkXnXnXcXnXnXcXMXkXnXnXkXMXcXVXMXcXMXvXcXMXcXnXnXcXmXkXpXqX0X2X<X2X<X2X2X3XwXiXpXxXmXkXmXbXkXmXcXnXMXkXMXvXcXMXcXnXnXkXMXkXnXnXcXnXnXcXMXkXnXnXkXMXcXvX",
"nXnXnXnXnXnXnXnXnXnXnXnXnXnXnXnXnXvXnXnXvXnXVXnXnXcXnXnXnXkXiX2X;X<X9X9X9X9X9X9X9X<X<X,X;X-XiXzXnXnXnXbXnXVXnXnXnXnXnXVXMXvXnXnXnXnXnXVXnXnXnXnXcXnXnXnXnXVXnXnX",
"nXnXnXnXkXnXnXnXnXnXnXnXcXnXnXcXMXvXnXnXvXBXvXnXnXcXMXcXiX%X{.|.1X<X1X1X,X,X,X1X1X<X<X<X<X;X|.3XfXnXnXcXnXnXvXnXcXnXnXcXnXVXvXBXnXnXnXcXnXnXnXnXcXnXnXnXBXvXnXnX",
"kXnXnXkXNXkXnXBXkXMXnXcXBXkXBXnXcXMXvXVXMXkXMXnXcXNXhX*XD.S.H.W. X!.!.Y.Y.Y.Y.Y.!.!. X,X1X<X1X|.-XfXcXMXkXVXnXcXMXvXcXMXkXnXnXcXnXcXnXBXkXnXnXnXBXcXMXnXkXMXcXcX",
"NXkXnXNXkXMXnXkXMXkXnXMXkXBXVXcXNXjXBXnXjXNXkXnXMXsX%Xw.w.w.L.P.C.C.V.V.c.c.c.V.V.V.C.Y.!. X X=X|.-XcXkXMXnXkXMXcXVXBXkXNXcXVXMXkXMXnXkXNXkXnXnXkXBXcXvXBXkXnXMX",
"kXnXnXkXBXnXnXnXkXMXVXcXBXkXMXnXkXMXvXVXMXkXMXnXsX].q.0.0.2.m.k.l.c.x.x.z.z.z.z.x.x.x.c.V.P.U.W.|.|.qXMXcXnXMXkXMXVXvXMXcXnXMXkXNXcXnXBXkXBXcXkXBXkXnXnXkXBXcXVX",
"BXnXnXnXkXnXnXkXBXcXnXnXcXMXcXnXBXvXnXnXvXMXVXVX'.q.0.0.1.:.;.s.h.z.x.x.x.z.z.z.x.x.x.x.x.v.V.P.R.{.#XsXMXVXcXMXcXnXnXkXBXvXvXMXcXnXnXnXnXcXnXmXcXMXVXnXMXcXnXnX",
"nXnXnXnXnXnXnXnXVXvXnXnXvXnXVXvXnXvXnXnXVXnXVX&Xt.0.0.<.$.*.u.a.g.h.z.z.z.z.z.z.z.z.z.z.z.h.h.l.M.I.E.eXnXnXvXvXvXnXbXnXnXnXnXnXnXmXnXnXnXnXnXnXnXnXnXnXnXnXnXnX",
"kXnXnXcXnXkXnXnXcXMXVXcXMXcXnXMXcXnXcXnXMXvXsXr.0.0.,.$.@.&.*.a.s.g.h.h.z.z.h.z.h.h.h.g.g.g.g.g.j.b.S.%XkXnXMXvXnXjXfXzXkXnXnXcXnXnXnXnXkXnXnXnXnXkXnXnXcXnXnXnX",
"NXnXnXBXkXnXnXkXMXkXnXBXkXMXvXvXMXkXMXMXkXNX'.0.6.9.$.@.@.*.*.u.u.g.f.g.g.g.g.g.g.g.g.g.g.f.f.g.a.i.2.I.kXnXpX3X-X#X-X-X3XeXfXmXkXnXmXzXNXkXnXnXkXNXnXkXMXkXnXnX",
"kXnXnXkXNXcXnXMXkXMXcXcXMXkXnXBXkXMXkXVXNX7Xt.0.0.<.#.+.@.-.&.=.u.u.u.s.s.g.s.s.f.s.f.u.a.a.u.u.u.i.-.0.tX>X{.H.{.=X=X;X;X;X;XqXbXkXbXnXkXnXnXkXNXkXnXnXkXNXkXnX",
"MXcXcXBXkXnXnXbXMXcXnXnXkXMXcXVXMXkXnXnXvX[.0.0.X.#.#.+.@.@.@.&.u.*.u.u.u.u.u.u.u.u.u.u.u.u.u.u.u.*.&.#.H.D.H.{.{.|.|. X;X;X=X|.:XxXmXkXnXkXnXnXkXnXnXnXnXkXnXnX",
"cXnXnXnXnXnXnXnXcXnXnXnXMXcXkXsXhXnXnXnXdXr.0.6.X.%.+.+.O.@.@.&.&.*.*.*.u.u.u.u.u.u.*.u.*.*.*.*.*.@.@.( 5.F.H.D.K.U.U.Y.!.W.}.}.W.=XfXmXnXnXnXnXnXnXnXnXnXnXnXnX",
"vXnXnXcXnXnXnXnXnXnXnXbX7X].r.t.t.].8XnX8Xt.6.0.o.+.' ' O.O.+.@.@.@.&.&.&.*.*.*.*.*.*.*.&.&.&.&.&.@.+.) 5.8.8.9.2.m.c.V.C.P.Y.U.U.T.=XzXnXnXnXnXnXnXnXnXnXnXnXnX",
"NXvXVXBXvXnXnXkXMXcXsX].2.$.>.1.%.%.<.^.^.<.0.6.#.o.' ( ( O.O.O.+.+.@.@.@.@.@.@.@.@.@.@.@.@.@.@.@.+.( } 3.5.~ +.*.g.z.z.z.l.c.C.B.P.I.>XBXkXnXnXkXnXnXkXMXzXnXnX",
"kXnXMXkXMXkXcXMXkXsX^.@.1.1.1.1.>.>.>.#.#.,.6.9. .` ( ( ( ( ( ( O.O.+.#.+.+.+.+.@.$.+.$.+.+.+.+.+.+.Q } 3.] R ( ;.f.g.h.h.h.z.l.M.m.n.T.sXNXvXvXNXkXnXMXkXNXkXnX",
"NXcXVXBXkXMXnXcXVXI.@.-.1.1.1.1.>.>.>.#.` `  .X.` ' ( / / / ( / Q ( ( #.O.O.O.( O.O.O.+.O.O.O.O.( Q E E [ W R +.*.a.f.f.g.g.g.g.g.k.b.w.7XvXnXMXkXMXcXcXNXkXnXnX",
"cXnXnXcXMXcXVXMX*X+.#.>.%.>.$.$.$.$.@.+.+._ _ ` ` ) / / / / / / Q ( _ Q Q _ Q 9. ._ Q _ Q ( _ _ Q Q W 9 ] E ! ( @.=.u.u.a.f.f.s.s.d.2.1.%XMXvXvXMXcXnXnXkXnXcXnX",
"nXnXnXnXcXnXvXsXw.Q O.#.#.@.$.@.@.+.+.+.+.( ( / ) ) / / R R Q Q Q Q Q Q 9.S.S.D.D.D.S.F.q.Q Q Q Q W T 9 E E R ) @.&.*.*.u.u.u.u.u.u.=.@.'.MXvXnXcXnXnXnXnXnXnXnX",
"MXnXnXnXcXBXnX&X_ Q Q _ ( @.+.+.+.+.O.O.( ( ( Q ! / ! R ! ! R ! Q _ 9.w.J.K.K.T.T.E.E.T.D.D.F.E Q E 4 7 7 E R ) ' +.@.@.@.&.*.=.u.*.@.+.*XMXvXMXcXBXbXvXmXcXnXnX",
"kXnXnXkXBXcXvX].Q R Q Q Q Q ( O.+.O.O.O.( ( ( / / / ! R R W ! ) #.9.e.J.J.K.K.I.I.T.T.T.T.K.S.F.9.E 4 4 5 E W ~ ) ( +.+.+.@.@.&.&.&.@.' 5XNXvXvXMXkXmXnXkXmXkXnX",
"NXcXcXBXkXnXcXG.R E E R Q Q Q ( ( ( O.( ( ( Q Q ! R R ! ! ! ) ` >.e.n.n.N.N.N.L.L.J.J.J.J.S.S.S.q.9.E 7 4 E W R ! ) ) ( ( O.+.@.@.+.( y.zXkXvXMXkXNXcXbXNXkXnXnX",
"kXnXnXkXMXsXiXQ.T.E.E.T.D.w.9.Q ( Q Q ( Q Q Q Q R R R E ~ ! ` %.1.p.m.m.M.m.m.m.m.b.n.n.n.n.w.w.w.9.9.R 5 5 W W ! / / / ( ( ( ( +.( ) *X>X*X$X3XqXaXbXnXkXMXnXkX",
"nXnXnXnXiX;X|.|.|.|.{.E.E.T.K.S.9.Q Q Q Q Q Q R R R R W ~ ) #.-.i.i.f.g.f.f.j.j.f.p.p.p.p.p.p.2.2.<.,. .W T T T ! ! ! ! ! / / / Q Q W ..E 5.D.|.;X<X0XaXbXbXmXnX",
"nXnXzXqX|.|.#X|.{.{.{.E.E.R.I.K.J.w.9._ R R R R R T E E ) ` @.;.i.g.a.g.f.f.s.s.s.a.u.u.u.i.*.*.-.1.$.#.) T 4 T W W ! ! ! R R R T 4 4 3 W 8.S.W.|. X1X<XwXkXnXnX",
"kXnXqX#X|.|.{.W.R.U.I.I.U.I.I.I.K.J.n.9._ Q Q R R W E R ) #.-.;.u.s.f.g.f.f.a.a.u.a.u.u.u.u.*.*.:.&.$.+._ R 4 T W W ! ! R T T 5 4 1 3 4 R ,.w.I.U.!.}.,X<XwXkXbX",
"NXpX#X|.W.T.J.L.n.N.N.B.N.N.N.J.J.J.J.n.e._ Q Q R W E { | #.-.;.u.s.u.a.u.a.u.a.u.u.u.u.*.*.&.&.&.@.$.+.( Q T T T T T T T T 5 3 3 3 3 4 ~ ,.2.m.B.B.U.R.|.9XgXmX",
"hX-XE.T.S.n.p.l.j.j.j.j.j.k.m.m.n.n.n.n.w.,.O.Q R W [ { |  .%.-.*.u.u.u.u.u.u.u.u.*.*.*.*.&.@.@.@.@.+.+.O.Q R T T T T T 5 5 4 3 3 3 4 T Q @.i.f.v.l.M.B.I.#XqXbX",
"pXT.F.8.1.:.i.a.a.a.a.a.a.i.a.i.p.p.b.n.e.e.>.Q Q W [ { X. .%.@.@.&.*.*.u.u.*.u.u.*.*.@.@.@.@.+.+.+.+.( ( Q R T 4 5 4 T 5 4 3 3 4 3 4 T ( @.u.f.h.g.l.k.m.I.:XzX",
"&Xq.5.X.>.-.u.u.u.u.u.u.u.u.u.u.u.i.i.p.p.2.>.+./ R ] } ..X. .' @.@.@.&.&.*.&.*.@.@.@.@.@.+.O.O.( ( ( ( Q Q R T T T T 4 4 4 4 4 3 4 3 T / @.u.s.g.g.a.u.k.N.}.fX",
"[.5... .>.-.*.*.u.*.=.=.u.*.*.*.u.u.&.:.:.-.$.@.( Q E [ { ..| ` ( +.+.+.@.@.@.@.@.@.+.+.O.( ( ( ( ( Q Q Q R T T T 4 4 4 4 4 4 3 4 3 4 R ( @.u.a.f.f.u.u.;.2.I.aX",
"'...|  .#.&.&.&.&.*.&.&.&.&.&.&.&.&.&.&.&.&.@.@.( / W ^ { { | ) _ _ _ ( ' ' ' ( O.( ( ( / ( Q Q Q Q Q Q R T T T T 4 T 4 4 4 3 3 4 3 4 T Q @.*.u.u.u.u.*.-.1.L.qX",
"'...{ ) ` +.@.@.@.@.@.@.@.@.@.@.+.@.@.@.@.@.@.+.+.( ! 7 ^ { [ ~ ~ ) ) ) / / / / Q Q Q Q R R R R Q R R R T T T T T T 4 T 4 3 3 4 3 4 4 T Q +.@.u.*.&.&.@.@.>.q.7X",
"*X,.[ ) ) ' ( +.+.+.O.O.( O.( O.O.O.+.O.Q O.O.O.( ( / T 7 ^ ] [ ^ ^ ^ R R W T T R T R T R R T T T T T T T 4 Q Q R R T 4 3 4 3 4 4 3 4 T Q O.@.@.@.@.+.O.+.#.q.iX",
"8X0.[ ~ ) ) ( ( ( ( ( / ( ( ( / Q Q Q Q Q Q Q Q / ( / R T T 7 ] ] E E 7 5 4 4 4 4 4 4 T 4 T 4 T 4 T 3 3 4 Q ( ( Q Q R T 3 3 3 3 3 4 4 T Q ( ( O.( O.( Q / | t.pX",
"pXr.| ~ ~ ) / / / / Q / / ! / ! Q Q R R R R R R R Q Q R T T 4 5 7 6 7 8 8 1 2 1 3 3 4 3 3 3 4 3 3 3 1 T Q ( O.( O.Q Q T 4 4 3 3 3 4 4 T R Q Q Q Q Q R W R W (.nX",
"BX[.X.[ ~ ! ! ! Q R Q Q ! ! R ! Q Q E R T T T R T R R R R T 4 1 8 8 1 1 < X q < < 1 3 1 3 3 1 1 , 1 T Q Q O.O.O.( Q Q R 4 , 3 3 3 4 3 4 T T Q W T T T 5 W { 5XnX",
"kXiXt.| [ ~ ~ ! R ! Q R ~ ! ! ! R E R W T T T T T T R R R T 4 1 , , > , - X q < , , , < , , > , 3 4 T Q ( O.O.( ( Q Q R 4 3 3 3 3 3 3 4 4 4 3 4 4 3 4 W E H.lXnX",
"NXzX'.,.{ { ~ [ ~ ) ~ ) ) ~ ~ ~ ^ R W W T T 4 4 T R R R R 4 3 1 > > > > ; X q = = > = q = > , 3 4 4 T Q Q ( ( ( O.Q Q T 4 3 4 , 3 3 1 3 3 4 3 3 4 T E E 8.tXnXnX",
"kXMXdX^. .{ { { { | { { { { [ ~ E R W 4 4 4 R / ( ( / R T 3 < 1 < , > > ; o ; , > , ; q < 3 3 3 3 4 T T R R / / Q Q Q T 4 3 3 3 5 6 7 6 9 E } } } } { 6.&XNXvXvX",
"MXVXcXsXG.X.} { } ....{ | { ~ ^ E E 4 4 W / ( +.+.( R 5 1 < = , < , > > f u < 1 < , ; q < 1 3 3 3 3 3 3 4 T T R Q Q T T 3 3 3 3 8 9 ] 3.4.4.4.4.4.4.G.>XnXvXnXnX",
"nXnXVXMXsX*X6.] ] [ { [ { [ ^ ^ 7 4 W R ( ( ( ( / R 4 , =   : , 1 < > h g w > , , , w u 1 3 3 3 3 , , = > ; 1 5 T T T 4 , 4 3 3 3 6 k } 3.4.7.Z.(.&XsXMXnXvXnXnX",
"kXnXMXkXnXnX(.T E E E E ^ k 7 7 W / +.+.( / Q R T 3 , * % . r < 1 < 2 f u ; > > > > h g h 1 < 1 , , = * %   % , 4 4 3 , 4 4 4 3 3 3 5 } *X>XtXyXvXvXnXnXcXMXvXVX",
"NXcXnXmXkXMX(.E T T T T W R Q ( +.@.+.( Q R R T 3 * * & % o i l 1 h f i w > = > > > < f f 2 < , , < q q X % = = > , 3 3 4 4 3 3 3 4 8 3.pXnXnXMXkXMXvXvXNXkXBXnX",
"kXnXnXkXMXvX.XW T T T T T R Q Q ( ( ( / R T 4 , > & &   % q i m f g t + ; > > = > * = w g ; , , < q @ f 0 > < > > > 1 3 4 3 3 3 3 8 4 } tXNXnXcXMXkXMXnXkXNXkXcX",
"NXnXcXmXcXmX5X^ 4 4 4 4 4 T 4 T T R R T T 4 3 > & & % % , w p n C i . o 2 , > > * * * ; g w * , r d l 2 1 1 , > > > , 3 3 4 3 3 8 4 4 4.sXvXnXnXcXnXnXcXMXkXMXnX",
"cXnXnXnXnXnXhXy.3 4 3 3 3 1 3 , , 3 3 3 3 1 > & & q X ; , < u b C n $ u h < > = > * * = f f = w g l 3 3 1 1 > > * > , 3 3 3 3 3 3 3 3 7.hXnXnXnXnXnXnXnXvXnXnXvX",
"cXnXnXkXnXnXnX*X7 8 8 , , , > > = > > , > ; f e e s q < > , e z B D d u j , , > > * * & e m f g f 8 3 1 1 < , > > > > 1 8 3 3 3 1 3 3 H.kXvXcXcXMXcXVXnXkXBXcXVX",
"NXnXnXnXcXnXnXkX(.1 , , > * * * * & * * * - u z m b q = > 1 v @ s F b y w > > > > > > > f K D M h 3 1 1 1 , > > > = > 1 1 1 3 , 1 3 3 .XNXkXnXMXkXMXnXvXBXkXBXnX",
"kXnXnXkXNXkXnXNXyXZ., * = & & & & & & & & & % X $ @ q > 0 .X@X# i D N y j = > > > > , > g L D z 2 < 1 1 , , > > = > > > 1 1 , , , , ] 5XvXNXvXkXMXkXnXMXkXMXcXvX",
"NXkXnXNXkXnXnXkXmXrXZ.> * * & & & & & & & & & :   . r Z.6XMXtXz @ S s # r & > > > > 1 h D K n u 2 < 1 < > > > > > = > > , , , , > 3 Z.sXNXkXMXMXkXMXcXcXMXkXMXnX",
"kXnXnXkXnXnXcXnXcXmXyX(.9 = > > = = = & & : & = j c @ XXMXvXyXx @ S d O q & * = > < w d C b O c j 6 2 < , > > = * > > > > > > > 1 k *XmXcXMXvXvXnXcXnXMXkXMXvXnX",
"nXnXnXnXnXnXnXnXnXvXvXcX>XA.8 , < = > > 0 k A..XpX@X# Z yXmXyXx @ D @ . X % : % % r d M B O o l k k j 2 < > > > > > > > = > < 1 k G.hXnXVXnXnXVXVXnXnXVXnXvXnXVX",
"NXnXnXnXkXnXnXnXmXcXnXMXvXkX>XA.A.A.(..X>XhXcXMXnXkXI O /.MXyXx d C + . X . + i d m S S i . f j k k k k k 0 2 2 1 1 , > , 2 6 7 Z.aXnXcXMXcXnXBXcXMXcXcXMXcXnXnX",
"kXnXnXkXNXkXnXBXkXmXvXvXNXvXMXMXkXmXvXnXmXcXnXnXkXmXOX. Z rXyXz n m O O i m G K K K C d # e j 6 k 6.G.G.7.4.4.} 9 9 8 8 5 ^ } H.sXvXvXMXkXMXvXcXNXcXnXBXkXMXcXcX",
"NXnXnXnXkXMXnXkXMXkXnXnXkXNXnXkXNXkXnXnXkXNXkXnXmXvXyXc $ OX4Xp B d i n D P P P D N i d f 2 h o.^.5XVXsXaX&X(.r.0.X.o.o.<.^.*XvXcXBXVXkXNXcXnXBXkXMXvXvXMXkXnXMX",
"kXnXnXkXnXkXnXnXkXmXnXkXNXkXnXnXkXMXkXnXBXkXnXcXvXMXlXI $ J /.p m a m C D K D n i i J A.y.G.(.&XdXMXkXNXVXBXVXyX8X&X*X8X8XkXMXkXMXcXvXMXkXMXnXcXMXkXBXMXkXMXvXVX",
"nXnXnXnXnXnXnXnXnXvXnXnXnXnXnXnXnXnXnXnXnXnXnXnXnXvXMXXX$ a b n b p m m n b p @ i /.sXsXsXjXVXMXnXnXnXVXMXnXVXMXMXMXnXnXMXnXvXMXcXnXnXvXnXcXnXnXkXBXnXvXBXkXnXnX",
"nXnXnXnXnXnXnXnXnXnXnXnXnXnXnXnXnXnXnXnXnXnXnXnXnXvXMXyXx a m C @ i b s i @ @ z XXvXMXvXnXnXnXMXnXnXnXvXnXVXnXnXnXBXnXvXnXnXvXnXnXnXnXvXnXnXnXnXvXVXnXVXnXvXnXnX",
"kXnXnXvXnXnXnXnXkXnXnXnXnXkXnXnXkXnXnXnXnXcXnXnXvXmXkXkXI C D C O @ p @ @ @ x XXVXMXcXMXvXVXMXkXnXnXvXMXvXnXBXkXMXvXVXMXkXMXnXkXMXkXVXMXkXMXnXcXMXcXnXnXkXMXcXvX",
"NXzXnXNXkXBXnXkXNXkXnXnXkXNXkXnXNXkXnXnXcXMXcXnXmXkXmXlXI D K M O + @ @ @ x XXNXvXcXMXkXMXMXjXMXvXVXMXjXMXvXkXMXjXnXMXkXMXkXvXMXkXMXnXkXMXkXnXMXkXMXVXvXMXkXBXnX",
"kXnXnXkXNXkXnXNXkXNXnXvXNXkXnXnXkXMXkXbXmXkXmXnXcXmXkXlXI D K B @ @ O @ # _.nXkXnXMXkXNXcXvXMXkXMXnXvXMXkXnXMXkXNXVXvXNXkXnXnXkXMXkXVXMXkXMXVXcXMXkXMXnXkXMXvXkX",
"MXcXnXnXkXnXnXkXNXkXnXnXkXnXnXnXMXcXnXnXnXnXcXvXmXkXnXlXJ C K N p @ @ t p XXnXBXVXcXMXcXnXnXkXMXvXVXBXvXMXVXvXMXvXnXnXkXMXvXvXMXkXMXnXkXBXcXnXnXkXMXnXvXMXcXnXMX",
"cXnXnXVXnXnXcXnXVXnXnXnXnXvXnXnXvXnXVXnXnXVXnXvXnXnXMXyXZ m K m s @ i s Z rXnXvXnXnXVXnXnXnXnXVXMXvXVXMXvXnXnXvXnXnXvXnXnXnXnXnXnXnXvXnXvXvXnXnXnXnXnXnXvXnXVXVX",
"cXnXnXcXMXnXnXnXcXnXnXcXBXvXnXVXvXMXnXvXnXcXnXnXvXMXvXuXx b K B s @ d N _.jXBXvXnXnXvXMXvXVXnXvXnXnXvXnXnXnXnXcXnXVXnXnXvXnXVXcXBXvXnXnXVXMXnXvXnXVXnXnXvXBXvXvX",
"NXcXnXBXcXnXnXkXMXkXnXMXkXMXcXcXMXkXMXnXkXMXcXnXMXkXNX6Xs b C C s t b B oXnXkXMXVXkXMXkXBXnXkXMXvXnXMXkXMXvXcXMXkXBXBXkXMXcXvXMXkXBXVXvXMXkXnXMXkXMXvXcXMXkXBXBX",
"kXnXnXkXBXkXnXMXkXMXcXcXMXkXBXnXkXMXcXcXMXkXMXnXkXNXcX@Xp s D C s i b A XXkXMXkXnXBXkXMXvXcXMXkXMXnXkXMXcXVXBXkXMXvXkXMXkXBXnXkXMXcXvXNXkXMXvXcXMXkXnXBXkXMXkXvX",
"NXcXnXNXkXBXVXcXNXcXnXMXkXMXvXVXMXkXBXnXkXMXkXvXMXlXMXXX@ s C C b i b A 4XNXkXMXnXvXMXkXnXnXkXMXvXvXMXkXMXVXvXNXkXnXnXkXMXcXVXNXkXBXnXkXMXkXVXMXkXMXcXvXMXkXBXMX",
"cXnXnXvXMXcXnXnXcXnXVXvXnXcXMXnXkXBXvXnXBXcXMXVXvXMXlXU @ b C C n p s A 4XvXMXvXnXnXvXMXvXnXMXvXnXVXcXMXcXnXnXcXBXvXvXMXcXnXMXvXBXvXvXBXkXBXnXvXMXvXnXnXkXBXvXvX",
"VXnXnXvXnXVXvXnXcXnXnXvXnXVXnXnXVXnXvXnXVXvXnXnXvXMX4XN @ b B C B p d V 6XMXnXVXnXnXvXVXnXnXnXVXnXnXvXnXvXnXnXnXnXnXvXnXvXnXnXvXvXVXvXnXnXnXVXvXnXVXnXVXvXnXvXVX",
"MXvXcXMXcXMXnXcXMXcXnXMXkXMXvXcXMXcXnXnXcXMXvXnXMXlX_.p b b m C S b p B 4XMXkXBXnXvXMXvXnXnXvXBXvXnXMXkXMXVXcXMXcXnXMXkXMXVXvXMXkXMXnXcXMXcXnXMXvXMXvXvXBXvXBXnX",
"kXnXnXcXMXkXnXMXkXMXcXcXMXkXnXMXkXMXvXnXMXkXMXnXcX@Xn a n b b C F N t d oXkXNXkXnXMXjXBXvXvXMXkXMXnXkXNXcXnXMXkXMXVXvXNXkXnXnXkXMXkXVXMXkXMXcXkXNXkXBXnXkXNXcXcX",
"NXcXVXMXkXMXnXkXBXkXnXBXkXMXcXVXMXkXMXnXkXMXkXnX@XC s b b @ s C F A a t H uXvXNXvXcXNXkXBXMXjXMXcXVXMXkXMXvXkXNXkXnXMXkXMXcXVXNXkXMXnXkXNXkXnXBXkXNXvXcXMXkXBXnX",
"kXMXMXkXNXcXvXMXkXMXVXvXMXcXnXMXkXMXVXnXMXjXMX@XC b b b p @ @ B F P N + p U 4XlXnXMXkXMXvXVXMXkXnXnXkXMXvXnXBXcXMXvXcXMXkXnXnXcXNXvXvXMXcXMXnXvXMXcXnXnXkXMXvXvX",
"nXnXvXnXvXnXnXVXnXnXnXnXcXnXnXvXnXvXnXnXvXMXyXI n N a @ @ @ @ s S L F i O i L ).rXvXMXvXnXnXVXnXvXnXnXcXnXVXvXnXnXnXVXcXBXvXnXnXvXnXnXvXnXvXnXnXvXnXnXVXBXvXnXnX",
"nXnXVXMXcXnXnXvXnXVXnXnXvXMXVXnXnXVXnXnXMXMX+XC B b p @ p @ @ @ N F L B @ . @ S _.+XzXnXnXnXvXnXnXnXBXcXnXVXcXnXvXnXnXcXnXnXVXnXVXMXnXvXnXnXnXnXVXMXVXvXMXvXnXnX",
"kXnXnXcXMXcXnXnXkXMXVXcXMXkXnXBXkXMXvXnXNX@XL C b p @ @ @ @ @ @ @ B L F s O . O n P ).dXnXnXMXvXnXnXkXMXvXnXMXkXMXvXcXMXkXBXBXkXMXcXVXBXkXMXVXcXMXkXnXBXkXMXvXVX",
"NXcXvXMXkXMXVXcXNXkXnXMXkXMXcXcXMXvXMXjX+XL K b @ @ @ @ @ @ @ O O i S L S i . . . d F /.sXMXjXMXcXvXMXkXMXVXcXMXkXMXnXkXMXkXvXMXkXMXnXkXMXkXnXBXkXMXcXvXMXkXBXnX",
"kXnXnXkXMXcXnXMXkXMXvXcXMXkXnXnXkXNXyX).U K N z y # # # y y z @ # # N F L A z # # u B L ).lXNXkXBXnXkXNXkXnXMXkXMXVXcXMXkXBXnXkXMXkXcXMXkXMXcXcXMXkXnXnXkXNXkXcX"
};
