/* XPM */
static char *bd54a4ff72174cebff022512e743a86dFf9C217Pzz2tSElE[] = {
/* columns rows colors chars-per-pixel */
"50 50 166 2 ",
"   c #090B0A",
".  c #1E1E1C",
"X  c #22231E",
"o  c #242522",
"O  c #222826",
"+  c #292A24",
"@  c #242929",
"#  c #2C2E2B",
"$  c #2D302D",
"%  c #292E31",
"&  c #2C3232",
"*  c #333433",
"=  c #353A34",
"-  c #393A35",
";  c #353639",
":  c #38373C",
">  c #373938",
",  c #3C3D3C",
"<  c #3E413D",
"1  c #42433D",
"2  c #3B3E40",
"3  c #3D4141",
"4  c #434543",
"5  c #454945",
"6  c #4A4947",
"7  c #424648",
"8  c #464949",
"9  c #4B4D4B",
"0  c #4D514D",
"q  c #52534E",
"w  c #4D4E50",
"e  c #4E5252",
"r  c #535554",
"t  c #555955",
"y  c #595A56",
"u  c #565A59",
"i  c #5B5D5B",
"p  c #605F5C",
"a  c #5D615D",
"s  c #606257",
"d  c #61625D",
"f  c #5E6262",
"g  c #636563",
"h  c #696562",
"j  c #656964",
"k  c #6A6A66",
"l  c #636768",
"z  c #656A69",
"x  c #6C6D6B",
"c  c #706E6D",
"v  c #6F7166",
"b  c #6D716C",
"n  c #727266",
"m  c #72736E",
"M  c #79766D",
"N  c #6D6F71",
"B  c #6E7272",
"V  c #747573",
"C  c #787772",
"Z  c #757875",
"A  c #7B7B75",
"S  c #737778",
"D  c #767A79",
"F  c #7B7C7B",
"G  c #817F72",
"H  c #7B8177",
"J  c #7E817C",
"K  c #82837E",
"L  c #8A877E",
"P  c #84887F",
"I  c #8A897E",
"U  c #7E7F82",
"Y  c #817F80",
"T  c #7E8182",
"R  c #848583",
"E  c #868883",
"W  c #8A8B85",
"Q  c #85868A",
"!  c #86898A",
"~  c #8B8D8A",
"^  c #918E87",
"/  c #908F8C",
"(  c #8F9184",
")  c #8F918B",
"_  c #939286",
"`  c #92938D",
"'  c #98968A",
"]  c #96998E",
"[  c #999A8E",
"{  c #8D8E91",
"}  c #8F9291",
"|  c #949593",
" . c #999692",
".. c #969994",
"X. c #9A9B95",
"o. c #959799",
"O. c #959A9A",
"+. c #9C9D9A",
"@. c #A19F95",
"#. c #A19E9A",
"$. c #9EA095",
"%. c #9EA19B",
"&. c #A1A296",
"*. c #A2A39C",
"=. c #A9A69D",
"-. c #A6A99C",
";. c #AAAA9E",
":. c #9D9FA1",
">. c #A19FA0",
",. c #9DA3A2",
"<. c #A4A4A2",
"1. c #A9A7A3",
"2. c #A5A9A5",
"3. c #A9A9A7",
"4. c #AAABA5",
"5. c #A9ADA7",
"6. c #ADAEA6",
"7. c #ABABA4",
"8. c #A3A4A8",
"9. c #A5A6AA",
"0. c #A7ABAA",
"q. c #A5AAA8",
"w. c #ABABA9",
"e. c #ABABAB",
"r. c #ADADAA",
"t. c #AFAFAF",
"y. c #ACADAA",
"u. c #B0AEA3",
"i. c #B0AFAB",
"p. c #AEB0A3",
"a. c #ABB1A7",
"s. c #AEB0A6",
"d. c #AFB1AB",
"f. c #AEB4AA",
"g. c #AEB1AB",
"h. c #B0B2A5",
"j. c #B3B0A7",
"k. c #B3B5AA",
"l. c #B5B7AA",
"z. c #B1B2AD",
"x. c #B1B7AD",
"c. c #B3B4AE",
"v. c #B4B5AE",
"b. c #B2B3AC",
"n. c #B8B5AC",
"m. c #B7B9AE",
"M. c #B2B8AE",
"N. c #BAB9AE",
"B. c #AFB4B0",
"V. c #B4B5B2",
"C. c #B9B7B2",
"Z. c #B6B8B3",
"A. c #B7B9B3",
"S. c #BABEB1",
"D. c #BCBDB7",
"F. c #BABBB5",
"G. c #B6BBB8",
"H. c #BBBDBA",
"J. c #C0BFBB",
"K. c #BFC0BA",
"L. c #C1C1B7",
"P. c #C1C2BB",
"I. c #C1C2BC",
"U. c #C3C3BC",
"Y. c #C3C5C2",
"T. c #C9C9C2",
/* pixels */
"X.( J E | :.U ; ! o.8.%.O.$.$.%.a.$.$.-. .*.*.*.%.+.~ 4 6 ^ { | ~ W ` X.-.-.-.-.;.&.&.-.-.m.k.W r ~ ",
"k.*.` +.+.| B & 8.8.0.V.Z.M.f.K.K.P.M.M.D.I.H.T.A.I.H.p i 8.>.3.r.4.3.b.l.l.p.p.N.p.h.K.p.k.z.*.4 X.",
"$.4.*.+.o.>.{ w Q S D | 5.a.f.K.Z.U.z.%.A.i.#.i.#.R o.p r F c >.1.3.r.7.6.;.6.l.h.-.p.p.] `  .` 6 F ",
"_ $.X.W Q :.{ e ,.T D ~ ,.a.a.f.*.z.z.<.H.i.r.3.~ R <.u w Y g ! ~ ~ | #.&.[ ' [ &.&.&.' L I ~ E q ~ ",
"@.] _ X. .| { x 8.{ F F ` %.2.-.$.%.r.<.1.<.8.| o.o.t.i u { c D o./ E ~ X.#.X.' $.[ ..] ] ` ^ R r +.",
"` ^ W  .| { Y u O.| ~ J ) 2.x.f.<.+.3.8.>.<.e.#.t.o.>.c z { V Y R { #.e.w.*.+. .-.$.X.<.3.*.| ` i ~ ",
"' *.#. ./ o.~ 9 o.$...P Z Z A C b m C R ! { | +.>.C.Y.V V t.o.{ } ~ R V h x ~ 1.| $.O.) ..*.<.+.u D ",
"d v k M c F V 6 o.%.%.J a 0 5 1 9 d r g k x r c Q { >.V x Y c S c h i i r r 4 : y P A q y ` 8.| w g ",
"n s s M ^ =.L , X.~ G Y K K H A / ~ x F R Y V ~ Q #.e.h u ~ c p d k Z D C Y F g , ; g R n M E F 8 x ",
"q y s y 1 q 1 o < < , , 1 4 0 t 6 4 9 6 * 9 w 6 w 6 y : * q 3 6 q 9 6 6 6 , : 6 6 1 * > 5 , * 5 # , ",
"G G G n M M n n m k h k b x h g w . i c i h x i h p h p d k x C V k j h d : 3 V c x Z R F n m A K F ",
"J.L.J.J.U.U.J.n.b.r.z.H.I.F.V.t. .$ F w.V.A.z.*.V.J.F.i.c.C.J.c.*.8.w.3.+.r i 1.C.+.%.z.z.z.z.$.&.*.",
"I u.l.u.j.N.u.=.*.1.V.z.+.R R ~ | * c n ) v.Z.*.6.D.Z.s.i.v.m.+.*.2.3.*.#.w 3 R | 9.>.#.z.5. .&.4.*.",
"n I &.;.=.n.J.u. .+.<.*. .E ~ >.+.9 R m K *.b.2.*.-.*.7.u.6.6.*.X.` ` ~  .6 3 c i Y <.7.$.' &.k.L.N.",
"G L L I I ;.=.I 1.@. .#. .~ R ~ ` 5 ^ *.( E ` X._ W W _ X.$. .X.X.) |  .<.y y ~ R g C ^ J E &.] [  .",
"I L I @.@.=.u.@.K E / +.| ~ ~  .W 1 +.Y.X.E  .` | ) _ P W $. .[ W L +.+.#.6 y | F h x ~ | E L E W +.",
"_ _ X.A h n V ~ $.} j a ..%.) 2.#.6 C | c.<.| | | ^  .Q G F ~ E O.K ..<.| 9 g Q F R f , 9 F ..) ..E ",
"M n K A b d q r b S H b b T a.K.<.r F F Y F F D F h V C z 4 w x H r t A %.a x +.} R B i , O , j 4 0 ",
"A a s n E ] R F 0 3 e b b H T $.E w V d r p b h k i g y c C c p M v j H %.a d | | K F F S y 4 < 9 r ",
"1 < , 1 1 9 y r e < $ < e < O < 6 X r 6 > 6 y 6 4 , 6 # , 6 1 4 0 k d t a * = 9 , 9 r e 9 e 4 $ 2 ; ",
"s y s s d j 6   0 f a r f z j b p 1 k m j n m a d h j X # i y d j v a e a a j a r y x x i t r 9 * i ",
"l.h.7.b.H.Y.X.* ! } q.0.$.%.a.2.3./ 3.C.g.z.z.*.7.V.6.1 y C.C.c.p.%...$.$.%.f.%.Z.5.g.H.F.G.<.R > ~ ",
"6.z.k.*.{ | ~ 8 T N D O.q.,.%.,.7.<.i.b.r.z.V.s.3.X.=.q t K E U.x.p.$.a.f.$.$.$.g.a.g.$.` <.2.E 3 E ",
"*.X.` ..~ X.} 4 Q F t f O.%.T $. .*.1.+. .*.*.2.] A W 1 t E m @.a.l.] ) 2.$.) %.X.` $...J J C t 4 ! ",
"X.X.` ` X.:.{ y Q U l z U T } ..*...-.X.W X.X.E L W ..= y &.m K ) $.$.$.%.) H %.$.%.) E E F m d 3 o.",
"E X.~ ` 8.| S u Q Q N S ! ~ } } | ..*. ._ +.+.+.) ` =.q m +.M W E ] ] ` ] J H $.R ) E E W W R x * V ",
"6.` X.2.O.9.>.w { Q S Q O.O.%.%.h d k W X.W F <.| o.*.a m o.A ~ ] ) K E $.$...$...) W ) ! R W Z i ! ",
"X.+.) L | H.t.N 9.:.T U ) T D B V y 1 6 i r w G ) +.4.y k $.~ L ( ] ` J Z H J E ) ) ) | ( O.8.W l X.",
"t k c d x { >.N 9.>.Q U D x l g A ~ R h N D h h F ~  .r d ` R g K K m j m L F g x E O.) Q <.9.V 7 U ",
"- + 1 i 6 u N : w 9 2 2 3 2 6 9 r y i r 9 d x c x d p > , y d 6 , q d y t r r d 0 0 u g y r i 7 > u ",
"p s q p D h w 6 w f u f f u p l i @ 6 F C k h c ~ c k i y p V h i d y d f , * 9 r 7 4 r r 6 r g u g ",
"C.m.i.i.3.>.1.{ | r.t.A.V.8.9.t.i.r c F.Y.H.I.F.J.i.J.Y.A.z.J.8.V.z.8.i.<.k g <.8.H.t.X.+.1.r.#.#.A.",
"@.=.C.3.*.c.C.i.w.i.C.C.i.i.C.i.c.r c 1.1.1.u.7.u.3.u.>.#.r.V.1.1.#.3.' #.m q G +.e.i.C.3.' ;.n.l.-.",
"M L =.1.#.*.#.#.@.#.1.C.C.i.#.E  .4 h #.#.#.@.@.' @.u.u. . .>.i.#./ #.#.*.g 6  .c  .3.u.=.1.n.u.l.p.",
"E L @.7.8.1.%.$. . .#.<.#.@.' Y #.q c $. . .#.;.u.=.#.1.<.X. .~ #.X.1. . .h p w. .~ G |  ._ ' &.p.;.",
"W E ' @.X.%.X.|  .|  . . .X.#. .#.r x o./ / `  .] ^ | X. .X.*.+.1.*.r. .*.V g +.E / { `  .*.X._ $.&.",
" .W ) ) ..2.O.E W ! } $.+.+.*.+.+.u B o.) E T T | ~ W R R o.| ~ <.~ ` ) +.l r ,.Z J ) J K P P K I $.",
"] ..` v 0 5 e e f b ! ~ F A W X.B.b D ~ H S B H d r 9 0 l J Q N r d J W %.x e ) 5.) E P P K H P m E ",
"C 0 < < a S b a 8 t f z t e x J o.u f b f e u f d z B l r u f z t i a 5 a u u } b B H j v E m a a a ",
"9 5 a a e 9 3 e e 3 < 9 t a a e f ; e N f e 3 3 i a l f 8 3 7 8 r 9 0 0 x 5 @ t e r f e 5 6 0 j f 5 ",
"0 e 0 0 e 3 r & 3 e e 3 u u t u a u u e e e u l z f f % % f f b f f u f f f 4 0 r t t t 7 8 e < O w ",
"%.0.,.%.,.,.} 3 T o.,.O.O.%.O.O.a.,.,.,.,.,.O.,.9.,.o.e 3 %.,.G.G.Y.5.f.f.B.5.g.q.B.G.K.B.B.g.! w Q ",
"%.a.q.%.,.} ! 7 f T ,.,...O.%...2.2.2.8.,.,.o.O.T ,.,.u e } R J %.K.g.V.g.5.g.*.a.G.G.V.B.K.K.o.2 N ",
"O.O.} ~ ! T Q u f f T } T } $.} O.%.O.+.,.o.} O.T } } e 3 H z d b +.g.z.r.f.V.5.5.a.4.$.} | ,.! 2 l ",
"-.$.} ) | ~ W r D b Z | %...,.$.|  ...| { } o.o.O.o.{ e 8 ~ F K a A 7. .` *. .$. .X.#.1.| R / R e Y ",
"T ] } H ! ~ o.r E Z b ! O.( $.} | ` ~ E R Q Q { T T T u y +.E E k j <.[ ' *._  .^ W / #.E V D N 2 Q ",
"J ` ) E ~ X.w.C E ) H ) $.} %.O.3.*.| ! ! / { Q R ! O.f a r.*.*.C i W ^ *.7.@.=.=.'  .@./ Q Y c ; Q ",
"m j f H { | | f R +.T E } W } ( / R V x c V z i N ! ,.z h A.4.*.#.n n c G G K A n d x G ` #.>.Y 2 Q ",
"a a a f Z T T t S D S z f r e a g t a f f e f S S N } T T 2.X.W d h j t y t k p h j d t V F E R 2 U ",
"a a B S T ~ T 3 z f e e a f u t t a B x B l N U S N T f x E b d g g x h j s V h V n h i x b D Z 2 U "
};
